<?xml version="1.0" encoding="UTF-8"?>
<svg version="1.1" xmlns="http://www.w3.org/2000/svg" width="206" height="91">
<path d="M0 0 C67.98 0 135.96 0 206 0 C206 30.03 206 60.06 206 91 C138.02 91 70.04 91 0 91 C0 60.97 0 30.94 0 0 Z " fill="#FCFCFC" transform="translate(0,0)"/>
<path d="M0 0 C0.81533203 -0.01160156 1.63066406 -0.02320313 2.47070312 -0.03515625 C3.64729492 -0.02935547 3.64729492 -0.02935547 4.84765625 -0.0234375 C5.56058838 -0.02005371 6.27352051 -0.01666992 7.00805664 -0.01318359 C9.53831037 0.49587669 10.43952065 1.29071349 11.9375 3.375 C11.85427523 6.38000859 11.61765316 9.10639191 11.1875 12.0625 C11.08695313 12.84044922 10.98640625 13.61839844 10.8828125 14.41992188 C10.68018486 15.97729712 10.46603651 17.53321799 10.24023438 19.08740234 C10.04031544 20.59808009 9.8844037 22.1153095 9.77539062 23.63525391 C9.53986343 26.66316381 9.30701849 28.87506322 7.4765625 31.3515625 C3.47030995 32.96639045 -0.41129435 32.80744157 -4.6875 32.75 C-5.55890625 32.76160156 -6.4303125 32.77320313 -7.328125 32.78515625 C-8.16085938 32.78128906 -8.99359375 32.77742188 -9.8515625 32.7734375 C-10.99165771 32.76836182 -10.99165771 32.76836182 -12.15478516 32.76318359 C-14.0625 32.375 -14.0625 32.375 -16.0625 29.375 C-16.14022925 25.35251148 -15.53236767 21.36663773 -15.0625 17.375 C-14.93746094 16.12203125 -14.81242187 14.8690625 -14.68359375 13.578125 C-14.54050781 12.33546875 -14.39742187 11.0928125 -14.25 9.8125 C-14.11980469 8.65621094 -13.98960938 7.49992187 -13.85546875 6.30859375 C-13.0625 3.375 -13.0625 3.375 -11.5546875 1.49609375 C-7.74235793 -0.21885701 -4.1310341 -0.05906165 0 0 Z " fill="#555555" transform="translate(61.0625,49.625)"/>
<path d="M0 0 C2.64 0 5.28 0 8 0 C9.65 3.3 11.3 6.6 13 10 C15.40588557 7.6832213 17.36493006 5.48712533 19.3125 2.75 C22 0 22 0 25.66796875 -0.171875 C27.31732422 -0.08679687 27.31732422 -0.08679687 29 0 C28.68828081 3.45840416 28.37547751 6.9167095 28.0625 10.375 C27.97548828 11.34050781 27.88847656 12.30601563 27.79882812 13.30078125 C27.23375344 19.53753144 26.63531187 25.77001037 26 32 C23.36 32 20.72 32 18 32 C18 27.71 18 23.42 18 19 C17.01 20.32 16.02 21.64 15 23 C11.8125 23.25 11.8125 23.25 9 23 C8.34 21.02 7.68 19.04 7 17 C6.34 17 5.68 17 5 17 C4.67 21.95 4.34 26.9 4 32 C1.36 32 -1.28 32 -4 32 C-4.29465144 24.54572783 -3.44322064 17.67886662 -2 10.375 C-1.80921875 9.37082031 -1.6184375 8.36664063 -1.421875 7.33203125 C-0.95602856 4.88633744 -0.48197402 2.44255719 0 0 Z " fill="#565656" transform="translate(16,50)"/>
<path d="M0 0 C3.43742918 -0.05802698 6.87473253 -0.09360486 10.3125 -0.125 C11.28896484 -0.14175781 12.26542969 -0.15851562 13.27148438 -0.17578125 C14.20927734 -0.18222656 15.14707031 -0.18867188 16.11328125 -0.1953125 C16.97735596 -0.20578613 17.84143066 -0.21625977 18.73168945 -0.22705078 C21 0 21 0 24 2 C24.1379417 4.75583522 24.09580841 7.20859602 23.875 9.9375 C23.83890625 10.66646484 23.8028125 11.39542969 23.765625 12.14648438 C23.55289934 15.20021718 23.37446409 17.4751364 21.5703125 20.00390625 C20 21 20 21 18 21 C18.99 24.63 19.98 28.26 21 32 C18.03 32 15.06 32 12 32 C11.01 28.7 10.02 25.4 9 22 C7.68 22 6.36 22 5 22 C5.020625 23.093125 5.04125 24.18625 5.0625 25.3125 C5 29 5 29 4 32 C1.69 32 -0.62 32 -3 32 C-3.28571429 14.57142857 -3.28571429 14.57142857 -1 10 C-0.77377919 8.29636178 -0.59111527 6.58671299 -0.4375 4.875 C-0.31181641 3.50988281 -0.31181641 3.50988281 -0.18359375 2.1171875 C-0.12300781 1.41851562 -0.06242187 0.71984375 0 0 Z " fill="#545454" transform="translate(48,12)"/>
<path d="M0 0 C0.83853516 -0.00257812 1.67707031 -0.00515625 2.54101562 -0.0078125 C3.8490918 0.00378906 3.8490918 0.00378906 5.18359375 0.015625 C6.05951172 0.00789063 6.93542969 0.00015625 7.83789062 -0.0078125 C8.67513672 -0.00523438 9.51238281 -0.00265625 10.375 0 C11.14142822 0.00225586 11.90785645 0.00451172 12.69750977 0.00683594 C14.62109375 0.265625 14.62109375 0.265625 16.62109375 2.265625 C16.89101281 4.95401885 16.70846732 7.55704436 16.62109375 10.265625 C14.31109375 10.265625 12.00109375 10.265625 9.62109375 10.265625 C9.62109375 9.605625 9.62109375 8.945625 9.62109375 8.265625 C6.32109375 8.265625 3.02109375 8.265625 -0.37890625 8.265625 C-0.37890625 9.585625 -0.37890625 10.905625 -0.37890625 12.265625 C0.60851562 12.24242187 1.5959375 12.21921875 2.61328125 12.1953125 C3.89460937 12.17726563 5.1759375 12.15921875 6.49609375 12.140625 C8.41035156 12.10582031 8.41035156 12.10582031 10.36328125 12.0703125 C13.62109375 12.265625 13.62109375 12.265625 15.62109375 14.265625 C16.3270588 19.28946929 16.60288093 24.52016701 13.74609375 28.890625 C10.80998937 32.17215342 10.80998937 32.17215342 7.7734375 32.41088867 C5.38917688 32.4353305 3.00548941 32.45127949 0.62109375 32.453125 C-0.21164063 32.46537109 -1.044375 32.47761719 -1.90234375 32.49023438 C-3.09730469 32.49313477 -3.09730469 32.49313477 -4.31640625 32.49609375 C-5.04730469 32.50020264 -5.77820313 32.50431152 -6.53125 32.50854492 C-8.37890625 32.265625 -8.37890625 32.265625 -10.37890625 30.265625 C-10.57421875 28.1015625 -10.57421875 28.1015625 -10.50390625 25.640625 C-10.48585937 24.82335937 -10.4678125 24.00609375 -10.44921875 23.1640625 C-10.42601562 22.53757812 -10.4028125 21.91109375 -10.37890625 21.265625 C-7.73890625 21.265625 -5.09890625 21.265625 -2.37890625 21.265625 C-2.37890625 22.255625 -2.37890625 23.245625 -2.37890625 24.265625 C0.92109375 24.265625 4.22109375 24.265625 7.62109375 24.265625 C7.62109375 22.945625 7.62109375 21.625625 7.62109375 20.265625 C6.63367188 20.28882812 5.64625 20.31203125 4.62890625 20.3359375 C3.34757813 20.35398437 2.06625 20.37203125 0.74609375 20.390625 C-0.53007812 20.41382812 -1.80625 20.43703125 -3.12109375 20.4609375 C-6.37890625 20.265625 -6.37890625 20.265625 -8.37890625 18.265625 C-8.44055889 15.54116561 -8.37838537 12.97327197 -8.19140625 10.265625 C-8.15982422 9.52828125 -8.12824219 8.7909375 -8.09570312 8.03125 C-7.9609375 5.890625 -7.9609375 5.890625 -7.37890625 2.265625 C-4.26673886 0.19084674 -3.53830117 0.01039912 0 0 Z " fill="#555555" transform="translate(149.37890625,49.734375)"/>
<path d="M0 0 C7.92 0 15.84 0 24 0 C24 2.31 24 4.62 24 7 C23 8 23 8 19.40234375 8.09765625 C17.91403133 8.0909822 16.42573568 8.07902183 14.9375 8.0625 C13.79958008 8.05573242 13.79958008 8.05573242 12.63867188 8.04882812 C10.75908129 8.0370068 8.87953101 8.01907078 7 8 C7 9.32 7 10.64 7 12 C11.29 12 15.58 12 20 12 C19.67 14.97 19.34 17.94 19 21 C14.71 21 10.42 21 6 21 C6 21.99 6 22.98 6 24 C10.95 24 15.9 24 21 24 C21 30 21 30 20 32 C12.41 32 4.82 32 -3 32 C-3 21.875 -3 21.875 -2.34375 17.08984375 C-2.22193359 16.178396 -2.10011719 15.26694824 -1.97460938 14.32788086 C-1.81798828 13.20905518 -1.66136719 12.09022949 -1.5 10.9375 C-1.005 7.328125 -0.51 3.71875 0 0 Z " fill="#585858" transform="translate(75,12)"/>
<path d="M0 0 C7.59 0 15.18 0 23 0 C23 2.64 23 5.28 23 8 C17.39 8 11.78 8 6 8 C6 9.32 6 10.64 6 12 C10.29 12 14.58 12 19 12 C18.67 14.97 18.34 17.94 18 21 C13.71 21 9.42 21 5 21 C5 21.99 5 22.98 5 24 C9.95 24 14.9 24 20 24 C20 26.64 20 29.28 20 32 C12.08 32 4.16 32 -4 32 C-2.48101266 7.44303797 -2.48101266 7.44303797 0 0 Z " fill="#585858" transform="translate(102,12)"/>
<path d="M0 0 C7.59 0 15.18 0 23 0 C23 2.64 23 5.28 23 8 C17.39 8 11.78 8 6 8 C6 9.32 6 10.64 6 12 C10.29 12 14.58 12 19 12 C18.67 14.64 18.34 17.28 18 20 C13.71 20 9.42 20 5 20 C5 21.32 5 22.64 5 24 C9.95 24 14.9 24 20 24 C20 26.64 20 29.28 20 32 C12.08 32 4.16 32 -4 32 C-2.58823529 5.17647059 -2.58823529 5.17647059 0 0 Z " fill="#555555" transform="translate(116,50)"/>
<path d="M0 0 C8.25 0 16.5 0 25 0 C25 2.64 25 5.28 25 8 C18.73 8 12.46 8 6 8 C6 9.32 6 10.64 6 12 C10.29 12 14.58 12 19 12 C19 14.64 19 17.28 19 20 C14.38 20 9.76 20 5 20 C4.67 23.96 4.34 27.92 4 32 C1.36 32 -1.28 32 -4 32 C-3.43626525 21.17240505 -1.76918512 10.69203184 0 0 Z " fill="#555555" transform="translate(21,12)"/>
<path d="M0 0 C2.97 0 5.94 0 9 0 C10.32 5.28 11.64 10.56 13 16 C15.64 10.72 18.28 5.44 21 0 C23.64 0 26.28 0 29 0 C28.2651012 3.71338052 26.73488497 6.86311079 25.09375 10.26171875 C24.80898804 10.8529805 24.52422607 11.44424225 24.23083496 12.05342102 C23.63077764 13.29730268 23.02889329 14.54030443 22.42529297 15.7824707 C21.4990664 17.68942214 20.579184 19.59933608 19.66015625 21.50976562 C15.14415347 30.85584653 15.14415347 30.85584653 14 32 C11.66702567 32.04092937 9.33294775 32.04241723 7 32 C0 8.61928934 0 8.61928934 0 0 Z " fill="#575757" transform="translate(75,50)"/>
<path d="M0 0 C2.64 0 5.28 0 8 0 C7.67 3.3 7.34 6.6 7 10 C9.97 10 12.94 10 16 10 C16 12.31 16 14.62 16 17 C12.37 17 8.74 17 5 17 C4.67 20.3 4.34 23.6 4 27 C1.69 27 -0.62 27 -3 27 C-3 23.7 -3 20.4 -3 17 C-5.97 17 -8.94 17 -12 17 C-11.67 14.69 -11.34 12.38 -11 10 C-7.37 10 -3.74 10 0 10 C0 6.7 0 3.4 0 0 Z " fill="#5B5B5B" transform="translate(184,53)"/>
<path d="M0 0 C7.92 0 15.84 0 24 0 C26.12430813 4.24861627 26.20616632 7.11194529 26.0625 11.6875 C26.0008115 14.1299078 25.97936088 16.55573819 26 19 C27.94090826 20.94090826 31.47293902 20.39919435 34.0625 20.5625 C35.35285156 20.64628906 36.64320313 20.73007813 37.97265625 20.81640625 C39.47119141 20.90728516 39.47119141 20.90728516 41 21 C41 22.32 41 23.64 41 25 C37.7 25 34.4 25 31 25 C31 24.01 31 23.02 31 22 C28.36 22 25.72 22 23 22 C23 24.64 23 27.28 23 30 C22.01 29.67 21.02 29.34 20 29 C20 27.68 20 26.36 20 25 C15.05 25 10.1 25 5 25 C5 23.68 5 22.36 5 21 C9.29 21 13.58 21 18 21 C18.33 18.36 18.66 15.72 19 13 C14.71 13 10.42 13 6 13 C6 11.68 6 10.36 6 9 C11.61 9 17.22 9 23 9 C23 6.36 23 3.72 23 1 C15.41 1 7.82 1 0 1 C0 0.67 0 0.34 0 0 Z " fill="#E6E6E6" transform="translate(116,49)"/>
<path d="M0 0 C2.31 0 4.62 0 7 0 C7.21792546 7.35094847 6.57688098 14.35847877 5.5 21.625 C5.28537109 23.13126953 5.28537109 23.13126953 5.06640625 24.66796875 C4.71712435 27.11294208 4.36157276 29.55681951 4 32 C1.36 32 -1.28 32 -4 32 C-4.02689216 30.52093108 -4.04634621 29.04172517 -4.0625 27.5625 C-4.07410156 26.73878906 -4.08570312 25.91507813 -4.09765625 25.06640625 C-4 23 -4 23 -3 22 C-2.70297986 20.37095732 -2.46187054 18.73162369 -2.24609375 17.08984375 C-2.04790039 15.60581055 -2.04790039 15.60581055 -1.84570312 14.09179688 C-1.71099609 13.05087891 -1.57628906 12.00996094 -1.4375 10.9375 C-1.29892578 9.89271484 -1.16035156 8.84792969 -1.01757812 7.77148438 C-0.67460733 5.18146356 -0.33559369 2.59098531 0 0 Z " fill="#565656" transform="translate(106,50)"/>
<path d="M0 0 C0.99 0 1.98 0 3 0 C2.52215605 4.02099167 2.04248795 8.04176374 1.5625 12.0625 C1.42779297 13.19623047 1.29308594 14.32996094 1.15429688 15.49804688 C1.02216797 16.60341797 0.89003906 17.70878906 0.75390625 18.84765625 C0.63345947 19.85836182 0.5130127 20.86906738 0.38891602 21.91040039 C-0.03508691 25.27873499 -0.51988634 28.63920436 -1 32 C6.59 32 14.18 32 22 32 C22 32.33 22 32.66 22 33 C14.08 33 6.16 33 -2 33 C-2 30.03 -2 27.06 -2 24 C-7.28 24 -12.56 24 -18 24 C-18 23.01 -18 22.02 -18 21 C-13.71 21 -9.42 21 -5 21 C-4.505 16.545 -4.505 16.545 -4 12 C-8.29 12 -12.58 12 -17 12 C-17 10.68 -17 9.36 -17 8 C-9.08 7.505 -9.08 7.505 -1 7 C-0.67 4.69 -0.34 2.38 0 0 Z " fill="#EFEFEF" transform="translate(99,12)"/>
<path d="M0 0 C2.97 0 5.94 0 9 0 C9.02725341 1.7290774 9.04650987 3.45828176 9.0625 5.1875 C9.07410156 6.15042969 9.08570312 7.11335938 9.09765625 8.10546875 C9.00486622 10.85576513 8.62111685 13.32479591 8 16 C4.7 16 1.4 16 -2 16 C-1.34 10.72 -0.68 5.44 0 0 Z " fill="#F3F3F3" transform="translate(55,58)"/>
<path d="M0 0 C0.33 0 0.66 0 1 0 C2.43290212 10.04967835 1.37018335 19.00572141 0 29 C7.59 29 15.18 29 23 29 C23 29.33 23 29.66 23 30 C11.45 30 -0.1 30 -12 30 C-12 29.67 -12 29.34 -12 29 C-8.04 28.505 -8.04 28.505 -4 28 C-4.66 24.7 -5.32 21.4 -6 18 C-4.68 17.01 -3.36 16.02 -2 15 C-1.38398 12.34123445 -0.99103544 10.00155162 -0.75 7.3125 C-0.67265625 6.61060547 -0.5953125 5.90871094 -0.515625 5.18554688 C-0.32766951 3.45870582 -0.16167523 1.72949947 0 0 Z " fill="#DBDBDB" transform="translate(72,15)"/>
<path d="M0 0 C2.64 0 5.28 0 8 0 C9.94554911 11.32168939 7.8032769 21.74755212 6 33 C13.59 33 21.18 33 29 33 C29 33.33 29 33.66 29 34 C21.08 34 13.16 34 5 34 C2.59805987 26.79417962 4.42998845 18.84548472 5.5 11.5 C5.71462891 9.98019531 5.71462891 9.98019531 5.93359375 8.4296875 C6.28415582 5.95238218 6.63972847 3.47590863 7 1 C4.69 1 2.38 1 0 1 C0 0.67 0 0.34 0 0 Z " fill="#D7D7D7" transform="translate(106,49)"/>
<path d="M0 0 C0.66 0.66 1.32 1.32 2 2 C5.08347826 2.16681109 5.08347826 2.16681109 8 2 C7.67 5.63 7.34 9.26 7 13 C4.36 13 1.72 13 -1 13 C-0.67 8.71 -0.34 4.42 0 0 Z " fill="#5B5B5B" transform="translate(18,31)"/>
<path d="M0 0 C0.33 0 0.66 0 1 0 C1 2.97 1 5.94 1 9 C-4.96674616 10.32594359 -10.92583615 10.0884587 -17 10 C-17 8.68 -17 7.36 -17 6 C-13.7 6 -10.4 6 -7 6 C-7 6.66 -7 7.32 -7 8 C-4.69 8 -2.38 8 0 8 C0 5.36 0 2.72 0 0 Z " fill="#AEAEAE" transform="translate(166,52)"/>
<path d="M0 0 C2.97 0 5.94 0 9 0 C9 1.98 9 3.96 9 6 C5.7 6 2.4 6 -1 6 C-0.67 4.02 -0.34 2.04 0 0 Z " fill="#DDDDDD" transform="translate(55,20)"/>
<path d="M0 0 C0.33 1.32 0.66 2.64 1 4 C1.66 4 2.32 4 3 4 C2.85761163 6.04190981 2.71092972 8.08352045 2.5625 10.125 C2.48128906 11.26195312 2.40007813 12.39890625 2.31640625 13.5703125 C2.02269035 16.7540478 1.56875687 19.85510907 1 23 C0.67 23 0.34 23 0 23 C-0.33 21.35 -0.66 19.7 -1 18 C-1.33 18 -1.66 18 -2 18 C-1.85860519 15.74971671 -1.71171997 13.49977794 -1.5625 11.25 C-1.48128906 9.99703125 -1.40007813 8.7440625 -1.31640625 7.453125 C-1.07484478 4.81682447 -0.75716066 2.51962706 0 0 Z " fill="#D3D3D3" transform="translate(45,50)"/>
<path d="M0 0 C0.99 0 1.98 0 3 0 C2.34 5.94 1.68 11.88 1 18 C0.67 18 0.34 18 0 18 C0 15.03 0 12.06 0 9 C-5.28 9 -10.56 9 -16 9 C-16.33 9.99 -16.66 10.98 -17 12 C-17 10.68 -17 9.36 -17 8 C-9.08 7.505 -9.08 7.505 -1 7 C-0.67 4.69 -0.34 2.38 0 0 Z " fill="#D2D2D2" transform="translate(99,12)"/>
<path d="M0 0 C1.47906892 -0.02689216 2.95827483 -0.04634621 4.4375 -0.0625 C5.26121094 -0.07410156 6.08492188 -0.08570313 6.93359375 -0.09765625 C9 0 9 0 10 1 C10.16017882 5.16464926 9.98248196 8.94726192 9 13 C8.34 11.68 7.68 10.36 7 9 C6.01 9.66 5.02 10.32 4 11 C5.1094072 7.51329166 6.26337666 4.22515763 8 1 C5.36 1 2.72 1 0 1 C0 0.67 0 0.34 0 0 Z " fill="#CECECE" transform="translate(96,49)"/>
<path d="M0 0 C2.64 0 5.28 0 8 0 C8.9880871 7.77117154 9.03232625 14.40816971 7 22 C6.67 22 6.34 22 6 22 C5.87890689 14.92278069 6.14626761 8.02804699 7 1 C4.69 1 2.38 1 0 1 C0 0.67 0 0.34 0 0 Z " fill="#DEDEDE" transform="translate(106,49)"/>
<path d="M0 0 C0.33 0 0.66 0 1 0 C1 4.95 1 9.9 1 15 C0.01 15 -0.98 15 -2 15 C-2.22577402 9.5814234 -1.46670113 5.22512279 0 0 Z " fill="#EDEDED" transform="translate(44,64)"/>
<path d="M0 0 C2.97 0 5.94 0 9 0 C9 0.99 9 1.98 9 3 C6.03 3 3.06 3 0 3 C0 2.01 0 1.02 0 0 Z " fill="#F0F0F0" transform="translate(149,58)"/>
<path d="M0 0 C2.64 0 5.28 0 8 0 C8 0.99 8 1.98 8 3 C5.36 3 2.72 3 0 3 C0 2.01 0 1.02 0 0 Z " fill="#FAFAFA" transform="translate(148,70)"/>
<path d="M0 0 C0.33 1.32 0.66 2.64 1 4 C1.66 4 2.32 4 3 4 C3 5.65 3 7.3 3 9 C2.34 8.01 1.68 7.02 1 6 C0.34 6.99 -0.32 7.98 -1 9 C-0.67 6.03 -0.34 3.06 0 0 Z " fill="#B8B8B8" transform="translate(45,50)"/>
</svg>
