<?xml version="1.0" encoding="UTF-8"?>
<svg version="1.1" xmlns="http://www.w3.org/2000/svg" width="225" height="224">
<path d="M0 0 C74.25 0 148.5 0 225 0 C225 73.92 225 147.84 225 224 C150.75 224 76.5 224 0 224 C0 150.08 0 76.16 0 0 Z " fill="#034AD8" transform="translate(0,0)"/>
<path d="M0 0 C0.98159592 -0.01283524 1.96319183 -0.02567047 2.97453308 -0.03889465 C4.04423843 -0.04628159 5.11394379 -0.05366852 6.21606445 -0.0612793 C7.31022171 -0.06935104 8.40437897 -0.07742279 9.5316925 -0.08573914 C11.85444545 -0.09960178 14.17721895 -0.11031412 16.5 -0.11816406 C20.04702703 -0.13534153 23.59311381 -0.17920512 27.13989258 -0.22338867 C29.394443 -0.23351817 31.64900137 -0.24203347 33.90356445 -0.2487793 C34.96314865 -0.26628738 36.02273285 -0.28379547 37.11442566 -0.30183411 C43.21206007 -0.28394779 46.76450001 0.08513615 51.3918457 4.17700195 C55.18860543 8.67316479 55.85311547 11.3717884 55.3918457 17.17700195 C54.48419569 20.59790901 53.26749915 23.88087439 52.0246582 27.19262695 C51.67412384 28.15401581 51.32358948 29.11540466 50.96243286 30.10592651 C49.82497975 33.21714835 48.6715688 36.32215285 47.5168457 39.42700195 C46.73186471 41.55805462 45.94768705 43.68940336 45.16430664 45.82104492 C43.61876679 50.02271022 42.06712438 54.22205367 40.51196289 58.42016602 C38.70748789 63.30266241 36.94741803 68.19924925 35.2121582 73.10668945 C34.76327325 74.36435377 34.31391655 75.62184985 33.86401367 76.87915039 C33.074645 79.08988727 32.29435781 81.30389751 31.52514648 83.52172852 C29.34112776 89.55127765 27.2156186 93.58832137 21.75317383 97.28637695 C18.25713483 98.60498223 14.80910324 98.42189228 11.1262207 98.37231445 C10.33282288 98.36948456 9.53942505 98.36665466 8.72198486 98.36373901 C6.19511653 98.35256974 3.66860639 98.32747139 1.1418457 98.30200195 C-0.574295 98.29196794 -2.29044128 98.28284282 -4.0065918 98.2746582 C-8.20725003 98.25264109 -12.40764149 98.21813382 -16.6081543 98.17700195 C-16.77309891 98.82663406 -16.93804352 99.47626617 -17.10798645 100.14558411 C-19.02884659 107.4698401 -21.42930092 114.52857614 -24.05737305 121.6262207 C-24.42785767 122.63736938 -24.79834229 123.64851807 -25.18005371 124.69030762 C-26.54695663 128.41686359 -27.92175268 132.14052057 -29.2956543 135.86450195 C-32.3687793 144.21762695 -35.4419043 152.57075195 -38.6081543 161.17700195 C-74.9081543 161.17700195 -111.2081543 161.17700195 -148.6081543 161.17700195 C-148.6081543 126.19700195 -148.6081543 91.21700195 -148.6081543 55.17700195 C-148.2781543 55.17700195 -147.9481543 55.17700195 -147.6081543 55.17700195 C-147.53338867 56.26754883 -147.45862305 57.3580957 -147.3815918 58.48168945 C-144.90774621 88.74393758 -130.24047284 115.18856313 -107.6081543 135.17700195 C-94.18189223 146.36749445 -78.03077799 152.81119421 -61.6081543 158.17700195 C-61.43292236 157.49813934 -61.25769043 156.81927673 -61.07714844 156.11984253 C-59.37666595 149.68956285 -57.3826065 143.47164764 -55.0456543 137.24731445 C-54.70222992 136.31995987 -54.35880554 135.39260529 -54.00497437 134.43714905 C-53.26399085 132.436915 -52.5210437 130.43740747 -51.77630615 128.43856812 C-49.74305889 122.9791627 -47.72651471 117.51359499 -45.7097168 112.0480957 C-45.28953278 110.91005997 -44.86934875 109.77202423 -44.43643188 108.59950256 C-39.87205254 96.2164329 -35.42314477 83.79259556 -30.9831543 71.36450195 C-29.41079722 66.96716626 -27.83778406 62.57006557 -26.2644043 58.1730957 C-25.68745316 56.56072021 -25.68745316 56.56072021 -25.09884644 54.91577148 C-21.27108057 44.2247546 -17.42057753 33.54204031 -13.54888916 22.86685181 C-12.84275171 20.91895824 -12.13762006 18.97069974 -11.43353271 17.02206421 C-10.47107632 14.35915247 -9.50502736 11.69757402 -8.5378418 9.03637695 C-8.2534021 8.24751602 -7.9689624 7.45865509 -7.67590332 6.64588928 C-5.2733603 0.05981156 -5.2733603 0.05981156 0 0 Z " fill="#FCFCFE" transform="translate(148.608154296875,62.822998046875)"/>
<path d="M0 0 C35.64 0 71.28 0 108 0 C100.70126052 20.67976187 93.39619306 41.35518998 86 62 C86.99797607 62.02187378 86.99797607 62.02187378 88.01611328 62.04418945 C91.05297114 62.11901365 94.08877091 62.21556016 97.125 62.3125 C98.17171875 62.33505859 99.2184375 62.35761719 100.296875 62.38085938 C107.62827974 62.6360665 112.25884515 63.55679676 117.875 68.5625 C121.01476511 72.65769226 120.4992664 77.06282234 120 82 C119.17686362 85.4919404 117.98076785 88.7837435 116.703125 92.1328125 C116.35783249 93.07651199 116.01253998 94.02021149 115.65678406 94.99250793 C114.53648504 98.04257437 113.39367105 101.08362947 112.25 104.125 C111.47332712 106.22548912 110.69802666 108.32648621 109.92407227 110.42797852 C107.99646712 115.64959722 106.05007671 120.86394819 104.09576416 126.07562256 C102.75514406 129.653472 101.42220074 133.23414917 100.08963013 136.81500244 C97.08513316 144.88637652 94.05302455 152.94683891 91 161 C83.08 161 75.16 161 67 161 C68.98859683 153.70847828 71.04641198 146.77299625 73.6953125 139.7421875 C74.04456284 138.80300476 74.39381317 137.86382202 74.75364685 136.8961792 C75.8732581 133.88754523 76.99915772 130.88130706 78.125 127.875 C79.65954168 123.75594783 81.19091379 119.63571877 82.72265625 115.515625 C83.09577438 114.51346954 83.46889252 113.51131409 83.85331726 112.47879028 C87.99328446 101.35164882 92.0184051 90.18476515 96 79 C90.39 78.67 84.78 78.34 79 78 C78.6066748 79.36334473 78.21334961 80.72668945 77.80810547 82.13134766 C75.80329039 88.80650219 73.43971544 95.34595173 71.0703125 101.8984375 C70.59318581 103.22297965 70.11620925 104.54757589 69.63937378 105.8722229 C68.64431505 108.63452839 67.64731664 111.39612375 66.64892578 114.15722656 C65.38223955 117.66085917 64.12064351 121.16629906 62.86055183 124.67230797 C61.8777338 127.40491011 60.89205458 130.13647377 59.9055748 132.86775589 C59.21666977 134.77675516 58.5301862 136.68662773 57.84378052 138.5965271 C55.10313348 146.16192368 52.14930956 153.59505777 49 161 C41.08 161 33.16 161 25 161 C29.23685473 147.99163772 33.84141961 135.16757867 38.65734863 122.36346436 C40.77172112 116.74008141 42.8742844 111.11228847 44.9765625 105.484375 C45.40183228 104.34620331 45.82710205 103.20803162 46.26525879 102.03536987 C50.31968333 91.17009058 54.29816945 80.27794723 58.25 69.375 C58.57040253 68.49138794 58.89080505 67.60777588 59.22091675 66.6973877 C60.5039122 63.15888908 61.78664818 59.6202967 63.06877136 56.08148193 C66.50674765 46.59482686 69.9637884 37.11515613 73.42785645 27.63800049 C74.09606947 25.80936216 74.76380132 23.98054792 75.43103027 22.15155029 C76.34740779 19.63967643 77.2652836 17.12835535 78.18359375 14.6171875 C78.45568161 13.87053833 78.72776947 13.12388916 79.00810242 12.35461426 C80.88561102 7.22877796 80.88561102 7.22877796 82 5 C51.10741364 15.71700762 26.25849974 34.05438839 11.69799805 64.03759766 C6.22366138 75.73065671 3.02661726 87.31304644 1 100 C0.67 100 0.34 100 0 100 C0 67 0 34 0 0 Z " fill="#FCFDFE" transform="translate(0,0)"/>
<path d="M0 0 C0.33 0 0.66 0 1 0 C1 34.98 1 69.96 1 106 C-32.33 106 -65.66 106 -100 106 C-100 105.67 -100 105.34 -100 105 C-99.05382812 104.85304688 -98.10765625 104.70609375 -97.1328125 104.5546875 C-75.19048088 100.92713594 -56.30017737 93.09551355 -39 79 C-38.22269531 78.38769531 -37.44539063 77.77539062 -36.64453125 77.14453125 C-15.49746844 59.5905977 -2.86178451 31.59918605 -0.3125 4.625 C-0.19925455 3.08397363 -0.09128979 1.54248273 0 0 Z " fill="#FDFDFE" transform="translate(224,118)"/>
<path d="M0 0 C33.99 0 67.98 0 103 0 C103 34.98 103 69.96 103 106 C102.67 106 102.34 106 102 106 C101.90203125 104.94683594 101.8040625 103.89367187 101.703125 102.80859375 C98.74571126 73.30339376 86.08118157 45.87017274 62.97949219 26.56347656 C44.81717995 12.11361889 23.18738468 2.9650326 0 1 C0 0.67 0 0.34 0 0 Z " fill="#FDFDFE" transform="translate(122,0)"/>
<path d="M0 0 C5.94 0 11.88 0 18 0 C12.81569975 16.03063489 7.10729002 31.84827272 1.24658203 47.640625 C0.15902716 50.57144268 -0.92348526 53.50404768 -2.00390625 56.4375 C-2.54385202 57.89598845 -3.08417153 59.35433864 -3.625 60.8125 C-4.07101563 62.01519531 -4.51703125 63.21789062 -4.9765625 64.45703125 C-6 67 -6 67 -7 68 C-9.86267567 68.07325168 -12.700719 68.09238205 -15.5625 68.0625 C-16.36880859 68.05798828 -17.17511719 68.05347656 -18.00585938 68.04882812 C-20.00393756 68.03700518 -22.00197783 68.01906914 -24 68 C-23.33657017 62.04728201 -21.21839872 56.72491986 -19.140625 51.15234375 C-18.75436951 50.10405899 -18.36811401 49.05577423 -17.97015381 47.97572327 C-16.73506479 44.62779134 -15.49254082 41.28267243 -14.25 37.9375 C-13.42922001 35.71436525 -12.60890279 33.49105959 -11.7890625 31.26757812 C-7.93041471 20.81702499 -4.03816577 10.38268232 0 0 Z " fill="#0449D8" transform="translate(162,78)"/>
</svg>
