<?xml version="1.0" encoding="UTF-8"?>
<svg version="1.1" xmlns="http://www.w3.org/2000/svg" width="2295" height="1308">
<path d="M0 0 C275.88 0 551.76 0 836 0 C832.50923191 4.18892171 830.10694306 6.93210219 826 10.125 C821.65980354 13.59015685 817.54875694 17.19978774 813.5 21 C808.76186718 25.43886768 803.87875669 29.59146266 798.8125 33.65625 C795.60150195 36.33208171 792.54970863 39.14358276 789.5 42 C784.76133536 46.43832674 779.87880674 50.5914225 774.8125 54.65625 C771.60150195 57.33208171 768.54970863 60.14358276 765.5 63 C760.76133536 67.43832674 755.87880674 71.5914225 750.8125 75.65625 C747.60150195 78.33208171 744.54970863 81.14358276 741.5 84 C736.76133536 88.43832674 731.87880674 92.5914225 726.8125 96.65625 C723.60150195 99.33208171 720.54970863 102.14358276 717.5 105 C712.76133536 109.43832674 707.87880674 113.5914225 702.8125 117.65625 C699.60150195 120.33208171 696.54970863 123.14358276 693.5 126 C688.76133536 130.43832674 683.87880674 134.5914225 678.8125 138.65625 C675.60150195 141.33208171 672.54970863 144.14358276 669.5 147 C664.76133536 151.43832674 659.87880674 155.5914225 654.8125 159.65625 C651.60150195 162.33208171 648.54970863 165.14358276 645.5 168 C640.76133536 172.43832674 635.87880674 176.5914225 630.8125 180.65625 C627.60150195 183.33208171 624.54970863 186.14358276 621.5 189 C616.76133536 193.43832674 611.87880674 197.5914225 606.8125 201.65625 C603.60150066 204.33208278 600.54972364 207.14359707 597.5 210 C592.73911006 214.45874444 587.8353218 218.6379783 582.74609375 222.72265625 C579.73681042 225.2182639 576.86059714 227.83763481 574 230.5 C570.29138312 233.95161936 566.51494105 237.26522148 562.5625 240.4375 C558.37762447 243.80346464 554.41687569 247.33177829 550.5 251 C546.56207137 254.68764393 542.57813909 258.23614426 538.375 261.625 C532.7419702 266.21002426 527.37430208 271.11427084 522 276 C504.18 276 486.36 276 468 276 C468 477.63 468 679.26 468 887 C376.92 887 285.84 887 192 887 C192 685.37 192 483.74 192 276 C128.64 276 65.28 276 0 276 C0 184.92 0 93.84 0 0 Z " fill="#212121" transform="translate(946,31)"/>
<path d="M0 0 C1.78556639 -0.00349111 3.57112877 -0.01050038 5.35666937 -0.02071333 C10.25094161 -0.03856882 15.14380852 -0.00665061 20.03790176 0.03351116 C25.32000025 0.06809786 30.60202116 0.05636515 35.88420105 0.05029297 C45.0317566 0.04610057 54.17885523 0.07117459 63.32629585 0.11619568 C76.55183562 0.1812456 89.77715471 0.20205065 103.00283711 0.21209961 C124.46111798 0.22960342 145.91915538 0.28282874 167.37730408 0.35852051 C188.22039085 0.43196619 209.06341113 0.48849524 229.90660095 0.52258301 C231.85379869 0.52579898 231.85379869 0.52579898 233.84033376 0.52907991 C243.99275966 0.54571555 254.14518701 0.56137085 264.29761493 0.57671642 C314.05039429 0.65216959 363.80256412 0.81311925 413.55528259 0.96203613 C413.55528259 92.04203613 413.55528259 183.12203613 413.55528259 276.96203613 C350.19528259 276.96203613 286.83528259 276.96203613 221.55528259 276.96203613 C221.55528259 478.59203613 221.55528259 680.22203613 221.55528259 887.96203613 C130.47528259 887.96203613 39.39528259 887.96203613 -54.44471741 887.96203613 C-54.44471741 686.33203613 -54.44471741 484.70203613 -54.44471741 276.96203613 C-145.85471741 276.96203613 -237.26471741 276.96203613 -331.44471741 276.96203613 C-327.31607857 272.14529083 -323.55964565 268.11711073 -318.75721741 264.14953613 C-317.51644206 263.1066819 -316.27687278 262.06239115 -315.03846741 261.01672363 C-314.43002991 260.50335449 -313.82159241 259.98998535 -313.19471741 259.46105957 C-310.66109008 257.29079286 -308.20919016 255.03626962 -305.75721741 252.77453613 C-302.28335432 249.58466769 -298.74561716 246.54154719 -295.06971741 243.58703613 C-290.2733103 239.7198475 -285.77430281 235.61222897 -281.28114319 231.40393066 C-277.09160174 227.50221083 -272.72307916 223.88886126 -268.25721741 220.30578613 C-265.04621936 217.62995442 -261.99442604 214.81845337 -258.94471741 211.96203613 C-254.20605276 207.52370939 -249.32352415 203.37061364 -244.25721741 199.30578613 C-241.04621807 196.62995335 -237.99444105 193.81843907 -234.94471741 190.96203613 C-230.18382747 186.5032917 -225.2800392 182.32405784 -220.19081116 178.23937988 C-217.18152783 175.74377223 -214.30531454 173.12440132 -211.44471741 170.46203613 C-207.73610053 167.01041677 -203.95965846 163.69681465 -200.00721741 160.52453613 C-195.22850113 156.68093556 -190.75314054 152.5924345 -186.28089905 148.40368652 C-182.09142215 144.50206943 -177.72298805 140.88878816 -173.25721741 137.30578613 C-170.04621936 134.62995442 -166.99442604 131.81845337 -163.94471741 128.96203613 C-159.20605276 124.52370939 -154.32352415 120.37061364 -149.25721741 116.30578613 C-146.04621936 113.62995442 -142.99442604 110.81845337 -139.94471741 107.96203613 C-135.20605276 103.52370939 -130.32352415 99.37061364 -125.25721741 95.30578613 C-122.04621936 92.62995442 -118.99442604 89.81845337 -115.94471741 86.96203613 C-111.20605276 82.52370939 -106.32352415 78.37061364 -101.25721741 74.30578613 C-98.04621936 71.62995442 -94.99442604 68.81845337 -91.94471741 65.96203613 C-87.20605276 61.52370939 -82.32352415 57.37061364 -77.25721741 53.30578613 C-74.04621936 50.62995442 -70.99442604 47.81845337 -67.94471741 44.96203613 C-63.20605276 40.52370939 -58.32352415 36.37061364 -53.25721741 32.30578613 C-50.04621421 29.62995014 -46.9944861 26.81839612 -43.94471741 23.96203613 C-39.20896445 19.52803027 -34.35813881 15.32558989 -29.27284241 11.29016113 C-26.51073714 9.16082195 -26.51073714 9.16082195 -24.81307417 7.01850176 C-17.66964361 -0.8083731 -9.81865266 -0.14267816 0 0 Z " fill="#212121" transform="translate(1851.4447174072266,30.0379638671875)"/>
<path d="M0 0 C3.95876402 0.0161273 7.91650985 -0.00000238 11.87524414 -0.01904297 C34.87121313 -0.03820228 57.72026767 1.6633214 80.39282227 5.64111328 C81.60736084 5.85018311 82.82189941 6.05925293 84.07324219 6.2746582 C106.68288151 10.29108305 128.6938576 15.89285059 150.39282227 23.39111328 C151.3196582 23.70661133 152.24649414 24.02210937 153.20141602 24.34716797 C208.89172885 43.40431403 260.33586301 73.69787008 305.39282227 111.39111328 C305.98901367 111.88820801 306.58520508 112.38530273 307.19946289 112.89746094 C316.56937847 120.73585503 325.57430495 128.93871585 334.39282227 137.39111328 C335.05507813 138.0246875 335.71733398 138.65826172 336.3996582 139.31103516 C338.36617006 141.20231484 340.31930982 143.10630967 342.26782227 145.01611328 C342.86916992 145.59603027 343.47051758 146.17594727 344.09008789 146.7734375 C346.90812594 149.56922788 348.66962118 151.47824803 349.39282227 155.39111328 C348.50981445 156.14134766 347.62680664 156.89158203 346.71704102 157.66455078 C340.97278557 162.55911667 335.25883792 167.46776916 329.70532227 172.57861328 C326.23145917 175.76848173 322.69372202 178.81160223 319.01782227 181.76611328 C314.22141516 185.63330192 309.72240767 189.74092044 305.22924805 193.94921875 C301.03970659 197.85093858 296.67118402 201.46428816 292.20532227 205.04736328 C288.99432422 207.72319499 285.9425309 210.53469604 282.89282227 213.39111328 C278.15415762 217.82944002 273.27162901 221.98253578 268.20532227 226.04736328 C264.99432422 228.72319499 261.9425309 231.53469604 258.89282227 234.39111328 C254.15415762 238.82944002 249.27162901 242.98253578 244.20532227 247.04736328 C240.99432422 249.72319499 237.9425309 252.53469604 234.89282227 255.39111328 C230.15415762 259.82944002 225.27162901 263.98253578 220.20532227 268.04736328 C216.99432422 270.72319499 213.9425309 273.53469604 210.89282227 276.39111328 C206.15415762 280.82944002 201.27162901 284.98253578 196.20532227 289.04736328 C192.99432422 291.72319499 189.9425309 294.53469604 186.89282227 297.39111328 C182.15415762 301.82944002 177.27162901 305.98253578 172.20532227 310.04736328 C168.99427186 312.72323862 165.94313594 315.53528119 162.89282227 318.39111328 C145.73810734 334.39963345 145.73810734 334.39963345 141.39282227 334.39111328 C139.12329102 332.68798828 139.12329102 332.68798828 136.58032227 330.14111328 C99.13104925 294.10599064 46.92061821 277.44852871 -4.14233398 278.14111328 C-33.87303373 278.8971387 -62.52172175 287.30728819 -88.60717773 301.39111328 C-89.20868652 301.71192871 -89.81019531 302.03274414 -90.42993164 302.36328125 C-123.42072744 320.07772819 -149.86201293 347.15107053 -168.60717773 379.39111328 C-168.96118652 379.99600586 -169.31519531 380.60089844 -169.67993164 381.22412109 C-194.46338077 424.09216121 -199.84839243 476.68930564 -187.60717773 524.39111328 C-180.55253411 549.87519432 -169.04637529 573.00536968 -153.60717773 594.39111328 C-160.73215526 601.59381784 -168.14674675 608.48020317 -176.04467773 614.82861328 C-180.82339401 618.67221385 -185.2987546 622.76071492 -189.77099609 626.94946289 C-193.96047299 630.85107998 -198.32890709 634.46436125 -202.79467773 638.04736328 C-206.00567578 640.72319499 -209.0574691 643.53469604 -212.10717773 646.39111328 C-216.84584238 650.82944002 -221.72837099 654.98253578 -226.79467773 659.04736328 C-230.00567578 661.72319499 -233.0574691 664.53469604 -236.10717773 667.39111328 C-240.84584238 671.82944002 -245.72837099 675.98253578 -250.79467773 680.04736328 C-254.00567578 682.72319499 -257.0574691 685.53469604 -260.10717773 688.39111328 C-264.84584238 692.82944002 -269.72837099 696.98253578 -274.79467773 701.04736328 C-278.00567578 703.72319499 -281.0574691 706.53469604 -284.10717773 709.39111328 C-288.84584238 713.82944002 -293.72837099 717.98253578 -298.79467773 722.04736328 C-302.00567578 724.72319499 -305.0574691 727.53469604 -308.10717773 730.39111328 C-312.84584238 734.82944002 -317.72837099 738.98253578 -322.79467773 743.04736328 C-326.00567964 745.7231982 -329.05742406 748.53473897 -332.10717773 751.39111328 C-336.89900938 755.87802944 -341.82969917 760.09938049 -346.95092773 764.21142578 C-351.30617744 767.78529245 -355.45688631 771.5829283 -359.60717773 775.39111328 C-363.97702666 772.23028223 -366.90347602 768.69546742 -370.04467773 764.39111328 C-370.56199463 763.68889648 -371.07931152 762.98667969 -371.61230469 762.26318359 C-373.28643284 759.97903203 -374.9473337 757.68566014 -376.60717773 755.39111328 C-377.15051758 754.64796875 -377.69385742 753.90482422 -378.25366211 753.13916016 C-395.44015026 729.56621369 -409.64743986 704.47118057 -422.60717773 678.39111328 C-423.0499707 677.51197266 -423.49276367 676.63283203 -423.94897461 675.72705078 C-451.98351373 619.93059367 -468.59593383 554.89337282 -468.81030273 492.30908203 C-468.81313011 491.65269556 -468.81595749 490.99630909 -468.81887054 490.32003212 C-468.83376022 486.82834114 -468.8430472 483.33669019 -468.84741211 479.8449707 C-468.85174277 477.03461335 -468.86543548 474.22457239 -468.88842773 471.41430664 C-469.09691548 445.35833567 -467.52782969 419.65267454 -462.91967773 393.95361328 C-462.79401428 393.24196014 -462.66835083 392.53030701 -462.53887939 391.79708862 C-455.83776886 354.05906538 -444.58269656 317.25235515 -428.60717773 282.39111328 C-428.12780762 281.3442334 -427.6484375 280.29735352 -427.15454102 279.21875 C-413.85184094 250.41597012 -398.34924038 223.01005543 -379.60717773 197.39111328 C-378.85049805 196.34955078 -378.09381836 195.30798828 -377.31420898 194.23486328 C-369.03115398 183.00973956 -360.25904933 172.05792132 -350.80249023 161.79736328 C-349.60886562 160.48904876 -348.42246431 159.17327485 -347.27709961 157.82250977 C-341.75218716 151.33520986 -335.74224507 145.34008554 -329.72045898 139.3190918 C-327.86988806 137.4663386 -326.02747697 135.60572622 -324.18530273 133.74462891 C-318.01202432 127.54278343 -311.79746744 121.65037544 -304.9152832 116.23168945 C-302.68125791 114.45018779 -300.57707858 112.58304455 -298.48217773 110.64111328 C-291.56193186 104.43378794 -284.04767933 98.95148813 -276.60717773 93.39111328 C-275.89916016 92.85824707 -275.19114258 92.32538086 -274.46166992 91.77636719 C-198.42375658 34.7391437 -103.18869157 0.34026095 0 0 Z " fill="#212121" transform="translate(468.607177734375,-0.39111328125)"/>
<path d="M0 0 C4.17920319 1.39306773 5.81221097 4.37598119 8.3125 7.8125 C8.83593994 8.52317627 9.35937988 9.23385254 9.89868164 9.96606445 C11.61045895 12.30269221 13.30705691 14.64969577 15 17 C15.56750977 17.7847168 16.13501953 18.56943359 16.71972656 19.37792969 C30.13083744 37.99561785 41.92468317 57.3409261 52.70556641 77.58740234 C53.8180552 79.66088673 54.95219359 81.71857772 56.10546875 83.76953125 C85.57618733 136.93835344 100.81014974 197.77833565 106 258 C106.10803955 259.24523437 106.10803955 259.24523437 106.21826172 260.515625 C113.80509574 353.89204377 90.39649799 448.05560809 8 582 C7.29746094 582.90363281 6.59492187 583.80726563 5.87109375 584.73828125 C-2.48235025 595.31931032 -11.29050275 605.49908114 -20.47851562 615.36083984 C-22.14501598 617.15623191 -23.79920075 618.96255047 -25.453125 620.76953125 C-31.22348972 627.04899965 -37.0051149 633.15557953 -43.4453125 638.76171875 C-45.93158823 640.94006125 -48.34930414 643.17576599 -50.76220703 645.43432617 C-56.96807877 651.23413023 -63.34053126 656.72156613 -70 662 C-71.21112148 662.98805578 -72.42204543 663.9763537 -73.6328125 664.96484375 C-142.93267613 720.85587301 -228.8140278 755.84032578 -317 766 C-317.98742187 766.11859375 -318.97484375 766.2371875 -319.9921875 766.359375 C-355.15832326 770.40588925 -391.91252018 769.41064778 -427 765 C-428.72814941 764.7831958 -428.72814941 764.7831958 -430.49121094 764.56201172 C-518.54230688 753.06213616 -602.16795854 715.05588736 -670 658 C-670.84522217 657.29012939 -670.84522217 657.29012939 -671.70751953 656.56591797 C-683.94977513 646.2599208 -683.94977513 646.2599208 -689.4375 640.56640625 C-691.17704977 638.8225076 -693.00521083 637.22819814 -694.875 635.625 C-707.40410174 624.78769478 -707.40410174 624.78769478 -709 620 C-703.31420941 614.69127755 -697.63316516 609.43335818 -691.5625 604.5625 C-686.78378372 600.71889943 -682.30842313 596.63039836 -677.83618164 592.44165039 C-673.64670474 588.5400333 -669.27827064 584.92675203 -664.8125 581.34375 C-661.60150195 578.66791829 -658.54970863 575.85641724 -655.5 573 C-650.76133536 568.56167326 -645.87880674 564.4085775 -640.8125 560.34375 C-637.60150195 557.66791829 -634.54970863 554.85641724 -631.5 552 C-626.76133536 547.56167326 -621.87880674 543.4085775 -616.8125 539.34375 C-613.60150195 536.66791829 -610.54970863 533.85641724 -607.5 531 C-602.76133536 526.56167326 -597.87880674 522.4085775 -592.8125 518.34375 C-589.60150195 515.66791829 -586.54970863 512.85641724 -583.5 510 C-578.76133536 505.56167326 -573.87880674 501.4085775 -568.8125 497.34375 C-565.60150195 494.66791829 -562.54970863 491.85641724 -559.5 489 C-554.76133536 484.56167326 -549.87880674 480.4085775 -544.8125 476.34375 C-541.60150195 473.66791829 -538.54970863 470.85641724 -535.5 468 C-530.77118736 463.57090084 -525.90457834 459.42083791 -520.83984375 455.375 C-516.86974724 452.05475422 -513.1233773 448.50471595 -509.4140625 444.89648438 C-507.40285626 442.98307993 -505.42911702 441.24932886 -503.0234375 439.8515625 C-499.48566515 440.1110902 -497.16022628 442.6598929 -494.5625 444.875 C-493.30174498 445.90512309 -492.03867697 446.93242113 -490.7734375 447.95703125 C-490.13889648 448.47346191 -489.50435547 448.98989258 -488.85058594 449.52197266 C-448.42726117 481.80730355 -395.97934606 495.67668348 -344.8125 490.3515625 C-309.05776377 485.86654081 -274.55908201 472.06017586 -246 450 C-245.07316406 449.28457031 -244.14632813 448.56914063 -243.19140625 447.83203125 C-231.62853028 438.61865112 -221.00805228 428.74676414 -212 417 C-211.21367188 416.0409375 -210.42734375 415.081875 -209.6171875 414.09375 C-189.33431125 388.91500707 -176.40258298 357.73225074 -171 326 C-170.77441406 324.70964844 -170.54882812 323.41929687 -170.31640625 322.08984375 C-162.94969051 271.33571258 -176.84772304 222.47437341 -206 181 C-203.3136741 177.4327081 -200.57799593 174.68117276 -197.0625 171.9375 C-192.70399509 168.44953535 -188.56969347 164.81952969 -184.5 161 C-179.76184401 156.56115458 -174.87875923 152.40853938 -169.8125 148.34375 C-166.60150195 145.66791829 -163.54970863 142.85641724 -160.5 140 C-155.76133536 135.56167326 -150.87880674 131.4085775 -145.8125 127.34375 C-142.60150195 124.66791829 -139.54970863 121.85641724 -136.5 119 C-131.76133536 114.56167326 -126.87880674 110.4085775 -121.8125 106.34375 C-118.60150195 103.66791829 -115.54970863 100.85641724 -112.5 98 C-107.76133536 93.56167326 -102.87880674 89.4085775 -97.8125 85.34375 C-94.60150195 82.66791829 -91.54970863 79.85641724 -88.5 77 C-83.76133536 72.56167326 -78.87880674 68.4085775 -73.8125 64.34375 C-70.60150195 61.66791829 -67.54970863 58.85641724 -64.5 56 C-59.76133536 51.56167326 -54.87880674 47.4085775 -49.8125 43.34375 C-46.60150195 40.66791829 -43.54970863 37.85641724 -40.5 35 C-35.76266582 30.56291939 -30.88202839 26.41047692 -25.81640625 22.34765625 C-22.58171876 19.65133561 -19.51016541 16.81515382 -16.4375 13.9375 C-4.27065151 2.59701781 -4.27065151 2.59701781 0 0 Z " fill="#212121" transform="translate(840,180)"/>
<path d="M0 0 C3.56556139 3.10815889 6.98318114 6.35281781 10.38769531 9.63574219 C11.16628906 10.35117188 11.94488281 11.06660156 12.74707031 11.80371094 C35.66515182 33.46211066 51.15516448 67.74693095 52.54882812 99.28173828 C52.59478152 103.52494659 52.63435458 107.76728054 52.63769531 112.01074219 C52.63837006 112.77651581 52.6390448 113.54228943 52.63973999 114.33126831 C52.6242053 125.40489141 52.22572439 135.87439929 49.38769531 146.63574219 C49.07890896 147.95991604 48.77032143 149.28413627 48.46191406 150.60839844 C44.21622088 167.63149114 35.9966575 184.67312047 25.38769531 198.63574219 C24.74316406 199.4878125 24.09863281 200.33988281 23.43457031 201.21777344 C21.46875129 203.73696278 19.44904821 206.19425387 17.38769531 208.63574219 C16.68902344 209.46976563 15.99035156 210.30378906 15.27050781 211.16308594 C9.85428969 217.41775776 3.94455602 222.60607219 -2.61230469 227.63574219 C-3.464375 228.30347656 -4.31644531 228.97121094 -5.19433594 229.65917969 C-36.40443117 253.33580365 -75.69502421 262.75412418 -114.36230469 257.44824219 C-151.45648375 251.81173394 -186.29978827 231.81835986 -209.04980469 201.73486328 C-233.24560647 168.56802692 -242.92395821 129.45377994 -237.08666992 88.84887695 C-231.0011495 51.11599146 -209.76646259 16.93523291 -178.86230469 -5.48925781 C-125.51853194 -42.88352903 -50.60488135 -42.81951498 0 0 Z M-183.61230469 40.63574219 C-203.08972854 63.81910541 -210.77507553 94.68249211 -208.29589844 124.43261719 C-204.52860984 157.1503308 -188.05294611 184.92593525 -162.61230469 205.63574219 C-137.04222358 224.65276469 -106.55263041 231.65453152 -75.11230469 227.44824219 C-43.79687224 222.81057843 -17.58646062 205.22473332 1.6730957 180.42114258 C19.9825352 155.39149473 25.4968052 124.25836527 21.92675781 93.83886719 C16.64577674 62.89853101 -1.41382532 35.85943113 -26.71948242 17.56005859 C-36.38523692 10.83995399 -46.74522162 6.06138393 -57.86230469 2.26074219 C-58.55815674 2.02186279 -59.25400879 1.7829834 -59.97094727 1.53686523 C-106.37511419 -13.4083164 -152.53976398 5.9692482 -183.61230469 40.63574219 Z " fill="#212121" transform="translate(2242.6123046875,1047.3642578125)"/>
<path d="M0 0 C137.93004769 0 137.93004769 0 184.4609375 46.45703125 C210.00187841 73.47665821 220.92699694 110.80329343 220.25 147.3359375 C218.96692136 184.68635667 203.13023464 220.23243605 176 246 C159.92116666 260.37418762 140.48256895 271.09409859 119.875 277.375 C119.13757568 277.6013916 118.40015137 277.8277832 117.64038086 278.06103516 C79.49403764 288.96701364 39.02349756 283 0 283 C0 189.61 0 96.22 0 0 Z M30 30 C30 103.59 30 177.18 30 253 C76.43761761 255.32302489 76.43761761 255.32302489 121.375 245.3125 C122.60657837 244.8009436 122.60657837 244.8009436 123.86303711 244.27905273 C150.61010235 232.76901304 172.10487683 210.79049502 183.21142578 183.99414062 C194.25138959 156.07636217 193.46937365 124.42819669 182.1875 96.75 C170.12372435 69.90129631 146.68423707 48.07107846 119.2421875 37.49609375 C89.9718212 27.26063163 61.58544203 30 30 30 Z " fill="#212121" transform="translate(1283,1019)"/>
<path d="M0 0 C1.55867634 1.33455294 3.10138712 2.68805202 4.625 4.0625 C5.32109375 4.66578125 6.0171875 5.2690625 6.734375 5.890625 C17.22922206 15.57191802 23.84798646 29.17743228 26.625 43.0625 C15.735 43.0625 4.845 43.0625 -6.375 43.0625 C-8.025 39.1025 -9.675 35.1425 -11.375 31.0625 C-19.47325394 18.95268056 -32.21722586 13.15889575 -46 9.875 C-69.5631327 5.26108463 -96.69874623 5.98593883 -117.125 19.6875 C-124.90710327 25.65902722 -131.92829729 34.1041289 -133.375 44.0625 C-134.49558896 56.92532882 -133.63721534 67.64719667 -125.75 78.3125 C-121.53552346 83.22679737 -116.92261494 86.76502386 -111.375 90.0625 C-110.56289062 90.55105469 -109.75078125 91.03960938 -108.9140625 91.54296875 C-93.27341715 100.09716335 -75.21999473 104.17364662 -58.11990356 108.79214478 C14.95367914 128.53543533 14.95367914 128.53543533 31.625 156.0625 C41.11919157 172.91344734 42.34767428 194.30020685 37.58984375 212.87109375 C30.75474444 235.47949916 17.60015168 250.1553873 -3.1315918 261.28857422 C-35.6448909 277.98922045 -79.21228302 278.88548911 -113.69604492 268.03588867 C-128.79510007 263.00534808 -140.96802256 256.2600004 -152.375 245.0625 C-153.42494141 244.04929687 -153.42494141 244.04929687 -154.49609375 243.015625 C-164.38743328 232.75793956 -173.375 215.61698017 -173.375 201.0625 C-161.825 201.0625 -150.275 201.0625 -138.375 201.0625 C-136.395 206.3425 -134.415 211.6225 -132.375 217.0625 C-125.16594474 229.75670601 -114.13545507 237.28824992 -100.1953125 241.35546875 C-73.99610789 248.34896611 -42.00333387 248.22007059 -17.375 236.0625 C-13.80136661 233.97588185 -10.56288558 231.69774118 -7.375 229.0625 C-6.73046875 228.53011719 -6.0859375 227.99773437 -5.421875 227.44921875 C3.11223279 219.6757597 7.11861258 209.61874981 7.875 198.33203125 C8.31582901 187.34672971 6.65298063 177.64967111 -0.5234375 168.953125 C-20.69513593 148.35586331 -54.48602076 142.20901987 -81.3744812 135.29476929 C-93.31475584 132.21771588 -105.06630321 129.06100604 -116.375 124.0625 C-117.07125488 123.75634766 -117.76750977 123.45019531 -118.48486328 123.13476562 C-137.29144201 114.68872298 -154.40906284 102.07892213 -162.43359375 82.4765625 C-168.78180564 64.19128231 -166.5574782 42.36816819 -158.83203125 24.88671875 C-156.45551836 20.28023398 -153.54407607 16.15323131 -150.375 12.0625 C-149.76269531 11.24265625 -149.15039062 10.4228125 -148.51953125 9.578125 C-116.04636172 -28.5142633 -37.97532413 -29.47856211 0 0 Z " fill="#212121" transform="translate(198.375,1033.9375)"/>
<path d="M0 0 C9.9 0 19.8 0 30 0 C30.00808685 2.42219376 30.01617371 4.84438751 30.02450562 7.33998108 C30.10171929 30.18953259 30.18970553 53.03902464 30.28752708 75.88849735 C30.33755839 87.63504306 30.38400211 99.38158211 30.421875 111.12817383 C30.45491054 121.37155761 30.49480492 131.61488831 30.54279006 141.85821337 C30.56794051 147.27735578 30.58975507 152.69646351 30.60334396 158.11564827 C30.61626895 163.22672817 30.63843354 168.3376884 30.66738319 173.44870186 C30.67637805 175.31456703 30.68213003 177.18045143 30.68421364 179.04633713 C30.71221593 200.33251988 32.13371415 219.75177975 47.109375 236.3359375 C63.89837603 252.84324388 87.04148502 256.25631805 109.58837891 256.2487793 C130.336845 256.05503774 149.00103087 250.793983 165 237 C179.33953731 220.2433816 181.45201492 202.1044438 181.43237305 180.95947266 C181.44140721 178.9771311 181.45173844 176.99479511 181.46325684 175.01246643 C181.49065871 169.67254161 181.50008835 164.33272326 181.50611091 158.99273729 C181.51553863 153.39667636 181.54174537 147.8006936 181.56611633 142.2046814 C181.60966453 131.62641383 181.63828309 121.04816154 181.66143972 110.46983182 C181.68855421 98.41890515 181.73246173 86.36805758 181.77772844 74.31718755 C181.87040733 49.54483299 181.94156895 24.77245698 182 0 C191.9 0 201.8 0 212 0 C212.06963192 25.74860062 212.12307829 51.49717834 212.15543652 77.24585438 C212.1708645 89.20307953 212.19187569 101.16024489 212.22631836 113.11743164 C212.25634585 123.54686405 212.27560452 133.97625312 212.28226548 144.40572757 C212.28615524 149.92118779 212.29521066 155.43652409 212.31719017 160.95194435 C212.33776687 166.15823019 212.34379164 171.36434271 212.33932304 176.57066536 C212.34013888 178.46712439 212.34597694 180.36359009 212.35761642 182.26001358 C212.51697318 209.59768222 207.78115015 234.88940487 189 256 C188.39671875 256.68578125 187.7934375 257.3715625 187.171875 258.078125 C169.9146709 276.49547728 143.55364168 286.20546121 118.66870117 287.12280273 C83.72171696 287.8581758 51.67549522 283.56885026 25.2421875 258.37109375 C13.73798205 246.28640087 6.4533255 232.17242924 2.75 216 C2.58661133 215.28884033 2.42322266 214.57768066 2.25488281 213.8449707 C-0.4109262 201.2875324 -0.13995153 188.50365949 -0.11352539 175.73730469 C-0.11324285 173.81437685 -0.11340256 171.8914489 -0.1139679 169.96852112 C-0.11425326 164.78137105 -0.10839878 159.59424439 -0.10139394 154.40709972 C-0.0951169 148.97389535 -0.09455317 143.54069035 -0.09336853 138.10748291 C-0.090268 127.83370529 -0.08207191 117.55993839 -0.07201904 107.28616548 C-0.06081812 95.583572 -0.05533744 83.880978 -0.05032361 72.17838049 C-0.03988817 48.1189142 -0.02211071 24.05945815 0 0 Z " fill="#212121" transform="translate(829,1019)"/>
<path d="M0 0 C55.11 0 110.22 0 167 0 C167 9.24 167 18.48 167 28 C144.23 28 121.46 28 98 28 C98 112.48 98 196.96 98 284 C88.1 284 78.2 284 68 284 C68 199.52 68 115.04 68 28 C45.56 28 23.12 28 0 28 C0 18.76 0 9.52 0 0 Z " fill="#212121" transform="translate(443,1018)"/>
<path d="M0 0 C9.9 0 19.8 0 30 0 C30 93.39 30 186.78 30 283 C20.1 283 10.2 283 0 283 C0 189.61 0 96.22 0 0 Z " fill="#212121" transform="translate(1738,1019)"/>
</svg>
