<?xml version="1.0" encoding="UTF-8"?>
<svg version="1.1" xmlns="http://www.w3.org/2000/svg" width="397" height="127">
<path d="M0 0 C131.01 0 262.02 0 397 0 C397 41.91 397 83.82 397 127 C265.99 127 134.98 127 0 127 C0 85.09 0 43.18 0 0 Z " fill="#FDFDFD" transform="translate(0,0)"/>
<path d="M0 0 C3.125 0.375 3.125 0.375 6 1 C6.6875 3.3125 6.6875 3.3125 7 6 C6.51966309 6.38414063 6.03932617 6.76828125 5.54443359 7.1640625 C3.08685961 10.08549095 3.57251997 13.41556797 3.6015625 17.0625 C3.59869232 17.85019775 3.59582214 18.63789551 3.59286499 19.44946289 C3.59082478 21.11377685 3.59635168 22.77811481 3.60888672 24.44238281 C3.62494191 26.99077947 3.60903756 29.53759021 3.58984375 32.0859375 C3.59182619 33.7031285 3.59566989 35.32031852 3.6015625 36.9375 C3.59548981 37.70006104 3.58941711 38.46262207 3.5831604 39.24829102 C3.62192954 43.31580892 3.62192954 43.31580892 5.27490234 46.94140625 C7.17477369 48.10724862 8.81000118 48.622414 11 49 C10.97905273 48.1529248 10.95810547 47.30584961 10.93652344 46.43310547 C10.86805945 43.26859607 10.81806013 40.10446609 10.78027344 36.93945312 C10.76024681 35.57376632 10.73301668 34.20816431 10.69824219 32.84277344 C10.64933568 30.87212898 10.62908653 28.90084017 10.609375 26.9296875 C10.58842773 25.74616699 10.56748047 24.56264648 10.54589844 23.34326172 C11.24585699 18.18991098 14.0339638 14.3995862 18.0625 11.1875 C22.21713416 8.0936235 25.03736996 7.86795132 30.08862305 7.82299805 C31.34390305 7.81016281 32.59918304 7.79732758 33.89250183 7.78410339 C35.26557011 7.7759337 36.63864287 7.76849041 38.01171875 7.76171875 C39.0517401 7.75560546 39.0517401 7.75560546 40.11277199 7.74936867 C43.78538335 7.72852072 47.45795753 7.71421568 51.13061523 7.70483398 C54.90890883 7.69379493 58.68660937 7.65942134 62.46469402 7.61966228 C65.3825229 7.59340847 68.30021261 7.58513427 71.21814919 7.58155251 C72.60991211 7.57670611 74.00166964 7.565148 75.39331627 7.54651451 C83.32437104 7.44695431 89.3005883 7.51704146 96 12 C99.33315865 16.18781471 101.13041591 19.65815559 101.11352539 25.01245117 C101.11341209 26.2133564 101.11341209 26.2133564 101.11329651 27.43852234 C101.10813522 28.29798965 101.10297394 29.15745697 101.09765625 30.04296875 C101.0962413 30.9265657 101.09482635 31.81016266 101.09336853 32.72053528 C101.08777069 35.54289128 101.07521861 38.36516797 101.0625 41.1875 C101.05748472 43.10091031 101.05292186 45.01432187 101.04882812 46.92773438 C101.03780197 51.61852014 101.02053883 56.30924663 101 61 C103.64 61 106.28 61 109 61 C109.1238616 65.05656281 109.21445733 69.11238978 109.2746582 73.17041016 C109.2997593 74.54983702 109.33384873 75.92913142 109.37719727 77.30810547 C109.43802875 79.29335872 109.46357937 81.27959359 109.48828125 83.265625 C109.51446533 84.45961914 109.54064941 85.65361328 109.56762695 86.88378906 C109 90 109 90 106.67651367 92.34277344 C103.84681974 94.09484517 101.19829024 95.10745389 98 96 C98.495 94.515 98.495 94.515 99 93 C99.0806622 91.51876453 99.10761193 90.03417796 99.09765625 88.55078125 C99.09443359 87.70322266 99.09121094 86.85566406 99.08789062 85.98242188 C99.07951172 85.10134766 99.07113281 84.22027344 99.0625 83.3125 C99.05798828 82.41982422 99.05347656 81.52714844 99.04882812 80.60742188 C99.03704983 78.40488013 99.02060164 76.20247401 99 74 C97.68 74 96.36 74 95 74 C95 77.63 95 81.26 95 85 C93.35 85.66 91.7 86.32 90 87 C89.32404685 85.58774074 88.65959941 84.16997095 88 82.75 C87.62875 81.96109375 87.2575 81.1721875 86.875 80.359375 C86 78 86 78 86 74 C83.53708441 74.37055991 83.53708441 74.37055991 81 76 C79.48175866 78.73846035 78.6056846 81.6402944 77.6875 84.625 C77.42388672 85.42679687 77.16027344 86.22859375 76.88867188 87.0546875 C76.24171502 89.03084662 75.61852793 91.01475915 75 93 C75.99 93 76.98 93 78 93 C78.495 91.02 78.495 91.02 79 89 C81.64 89 84.28 89 87 89 C87.33 90.32 87.66 91.64 88 93 C84.56778191 94.84335203 81.12840873 96.67292909 77.6875 98.5 C76.71103516 99.02464844 75.73457031 99.54929687 74.72851562 100.08984375 C73.32182617 100.83427734 73.32182617 100.83427734 71.88671875 101.59375 C71.02264404 102.05458984 70.15856934 102.51542969 69.26831055 102.99023438 C67 104 67 104 64 104 C64 102.35 64 100.7 64 99 C62.24526367 99.0314209 62.24526367 99.0314209 60.45507812 99.06347656 C56.0867146 99.13624856 51.71840395 99.18193422 47.34960938 99.21972656 C45.46410084 99.23975767 43.57865377 99.26699073 41.69335938 99.30175781 C38.97250138 99.35065272 36.25246944 99.37305382 33.53125 99.390625 C32.28075867 99.42159271 32.28075867 99.42159271 31.00500488 99.45318604 C24.53931726 99.45562715 19.15291529 97.97824008 14.35820007 93.44915771 C8.70767407 86.93653861 10.48133326 76.51638531 10.6875 68.5 C10.71261183 66.80211613 10.73541992 65.10419654 10.75585938 63.40625 C10.81063312 59.26994332 10.89674287 55.13536883 11 51 C9.9171875 51.1546875 9.9171875 51.1546875 8.8125 51.3125 C6 51 6 51 3.22729492 49.03198242 C0.39528728 45.17681385 0.30279446 42.09437885 0.36328125 37.48828125 C0.35290329 36.67884567 0.34252533 35.8694101 0.33183289 35.03544617 C0.30221483 32.46069467 0.30552067 29.88739073 0.3125 27.3125 C0.30361451 24.72730386 0.28771326 22.14249311 0.2610321 19.55741882 C0.24608402 17.95153792 0.24233326 16.34550636 0.25080872 14.73957825 C0.39870302 10.40464743 0.39870302 10.40464743 -2 7 C-2.25 4.5 -2.25 4.5 -2 2 C-1.34 1.34 -0.68 0.68 0 0 Z " fill="#8E60FD" transform="translate(13,10)"/>
<path d="M0 0 C3.125 0.375 3.125 0.375 6 1 C6.6875 3.3125 6.6875 3.3125 7 6 C6.51966309 6.38414063 6.03932617 6.76828125 5.54443359 7.1640625 C3.08685961 10.08549095 3.57251997 13.41556797 3.6015625 17.0625 C3.59869232 17.85019775 3.59582214 18.63789551 3.59286499 19.44946289 C3.59082478 21.11377685 3.59635168 22.77811481 3.60888672 24.44238281 C3.62494191 26.99077947 3.60903756 29.53759021 3.58984375 32.0859375 C3.59182619 33.7031285 3.59566989 35.32031852 3.6015625 36.9375 C3.59548981 37.70006104 3.58941711 38.46262207 3.5831604 39.24829102 C3.62192954 43.31580892 3.62192954 43.31580892 5.27490234 46.94140625 C7.17477369 48.10724862 8.81000118 48.622414 11 49 C10.97905273 48.1529248 10.95810547 47.30584961 10.93652344 46.43310547 C10.86805945 43.26859607 10.81806013 40.10446609 10.78027344 36.93945312 C10.76024681 35.57376632 10.73301668 34.20816431 10.69824219 32.84277344 C10.64933568 30.87212898 10.62908653 28.90084017 10.609375 26.9296875 C10.58842773 25.74616699 10.56748047 24.56264648 10.54589844 23.34326172 C11.24585699 18.18991098 14.0339638 14.3995862 18.0625 11.1875 C22.21713416 8.0936235 25.03736996 7.86795132 30.08862305 7.82299805 C31.34390305 7.81016281 32.59918304 7.79732758 33.89250183 7.78410339 C35.26557011 7.7759337 36.63864287 7.76849041 38.01171875 7.76171875 C39.0517401 7.75560546 39.0517401 7.75560546 40.11277199 7.74936867 C43.78538335 7.72852072 47.45795753 7.71421568 51.13061523 7.70483398 C54.90890883 7.69379493 58.68660937 7.65942134 62.46469402 7.61966228 C65.3825229 7.59340847 68.30021261 7.58513427 71.21814919 7.58155251 C72.60991211 7.57670611 74.00166964 7.565148 75.39331627 7.54651451 C83.32437104 7.44695431 89.3005883 7.51704146 96 12 C99.33315865 16.18781471 101.13041591 19.65815559 101.11352539 25.01245117 C101.11341209 26.2133564 101.11341209 26.2133564 101.11329651 27.43852234 C101.10813522 28.29798965 101.10297394 29.15745697 101.09765625 30.04296875 C101.0962413 30.9265657 101.09482635 31.81016266 101.09336853 32.72053528 C101.08777069 35.54289128 101.07521861 38.36516797 101.0625 41.1875 C101.05748472 43.10091031 101.05292186 45.01432187 101.04882812 46.92773438 C101.03865283 51.61854473 101.01907698 56.30918358 101 61 C94.73 61 88.46 61 82 61 C82.33 59.35 82.66 57.7 83 56 C83.83033421 46.2537821 82.12969986 39.98795915 77 31.8125 C72.26597078 26.65991332 65.49183101 23.57923314 58.6796875 22.44921875 C51.13346637 22.13702284 45.15351492 23.55207889 39 28 C34.40897061 32.2700464 30.05440336 37.69445914 29 44 C29.11438151 45.9465282 29.23100075 47.89302625 29.37084961 49.83789062 C29.77652664 56.82565825 29.62936775 61.40310193 24.9375 67 C23.30850242 68.68312567 21.66284741 70.35030802 20 72 C18.61945204 73.708178 17.26266147 75.43600584 15.9375 77.1875 C15.36902344 77.92355469 14.80054687 78.65960938 14.21484375 79.41796875 C13.81394531 79.94003906 13.41304687 80.46210937 13 81 C12.34 80.67 11.68 80.34 11 80 C11 70.43 11 60.86 11 51 C9.35 51 7.7 51 6 51 C3.22729492 49.03198242 3.22729492 49.03198242 1 46 C0.5172603 42.97569494 0.32367099 40.5046212 0.36328125 37.48828125 C0.35290329 36.67884567 0.34252533 35.8694101 0.33183289 35.03544617 C0.30221483 32.46069467 0.30552067 29.88739073 0.3125 27.3125 C0.30361451 24.72730386 0.28771326 22.14249311 0.2610321 19.55741882 C0.24608402 17.95153792 0.24233326 16.34550636 0.25080872 14.73957825 C0.39870302 10.40464743 0.39870302 10.40464743 -2 7 C-2.25 4.5 -2.25 4.5 -2 2 C-1.34 1.34 -0.68 0.68 0 0 Z " fill="#A265FC" transform="translate(13,10)"/>
<path d="M0 0 C6.72542286 3.96598856 11.18276381 9.42171271 13.4375 16.9375 C13.95390454 22.55237476 14.40382162 28.99363063 11.4375 33.9375 C9.50925552 34.81759324 7.56548431 35.41227025 5.5390625 36.03125 C1.25225926 37.8798343 -1.65058409 41.92034201 -3.5390625 46.09765625 C-4.5625 47.9375 -4.5625 47.9375 -7.5625 48.9375 C-15.32293307 49.90557038 -22.29892192 48.07822736 -28.609375 43.4296875 C-33.88655814 38.58099359 -37.08474589 33.10156142 -37.90625 25.94140625 C-38.18529169 16.62838996 -35.78895548 10.5131706 -29.421875 3.73828125 C-21.47549277 -3.95768978 -10.02513224 -4.58725748 0 0 Z " fill="#FDFBFB" transform="translate(81.5625,37.0625)"/>
<path d="M0 0 C4.28663998 -0.0995024 8.57265331 -0.1717631 12.86010742 -0.21972656 C14.31595584 -0.23973822 15.77172494 -0.26695677 17.22729492 -0.30175781 C32.82866768 -0.66520192 32.82866768 -0.66520192 38 4 C41.87415768 9.68175621 42.55752089 14.79191258 42.390625 21.53125 C42.38496521 22.40777222 42.37930542 23.28429443 42.37347412 24.18737793 C42.35126636 26.95883188 42.3011016 29.72894365 42.25 32.5 C42.22991474 34.39060619 42.21166754 36.28123286 42.1953125 38.171875 C42.15487131 42.78217014 42.07655644 47.38960121 42 52 C35.73 52 29.46 52 23 52 C23.33 50.35 23.66 48.7 24 47 C24.83033421 37.2537821 23.12969986 30.98795915 18 22.8125 C14.72960744 19.12045305 10.14065376 17.33706134 5.7421875 15.296875 C3 14 3 14 0 12 C0.66 11.34 1.32 10.68 2 10 C2 9.01 2 8.02 2 7 C0.27119018 6.94550162 -1.45812712 6.90698312 -3.1875 6.875 C-4.63189453 6.84019531 -4.63189453 6.84019531 -6.10546875 6.8046875 C-9.12812778 7.0086456 -11.26769985 7.73125368 -14 9 C-9.25362096 4.09540832 -9.25362096 4.09540832 -5.79296875 3.83203125 C2.81408242 3.76751063 2.81408242 3.76751063 7 6 C7.33 4.68 7.66 3.36 8 2 C5.36 1.67 2.72 1.34 0 1 C0 0.67 0 0.34 0 0 Z " fill="#895EF7" transform="translate(72,19)"/>
<path d="M0 0 C0.72963959 0.00141495 1.45927917 0.0028299 2.21102905 0.00428772 C4.54437335 0.00989094 6.87762214 0.0224439 9.2109375 0.03515625 C10.79166528 0.04017084 12.37239457 0.04473382 13.953125 0.04882812 C17.83076604 0.05986141 21.70833557 0.07712814 25.5859375 0.09765625 C25.7097991 4.15421906 25.80039483 8.21004603 25.8605957 12.26806641 C25.8856968 13.64749327 25.91978623 15.02678767 25.96313477 16.40576172 C26.02396625 18.39101497 26.04951687 20.37724984 26.07421875 22.36328125 C26.10040283 23.55727539 26.12658691 24.75126953 26.15356445 25.98144531 C25.5859375 29.09765625 25.5859375 29.09765625 23.26245117 31.44042969 C20.43275724 33.19250142 17.78422774 34.20511014 14.5859375 35.09765625 C14.9159375 34.10765625 15.2459375 33.11765625 15.5859375 32.09765625 C15.6665997 30.61642078 15.69354943 29.13183421 15.68359375 27.6484375 C15.68037109 26.80087891 15.67714844 25.95332031 15.67382812 25.08007812 C15.66544922 24.19900391 15.65707031 23.31792969 15.6484375 22.41015625 C15.64392578 21.51748047 15.63941406 20.62480469 15.63476562 19.70507812 C15.62298733 17.50253638 15.60653914 15.30013026 15.5859375 13.09765625 C14.2659375 13.09765625 12.9459375 13.09765625 11.5859375 13.09765625 C11.5859375 16.72765625 11.5859375 20.35765625 11.5859375 24.09765625 C9.9359375 24.75765625 8.2859375 25.41765625 6.5859375 26.09765625 C5.90998435 24.68539699 5.24553691 23.2676272 4.5859375 21.84765625 C4.2146875 21.05875 3.8434375 20.26984375 3.4609375 19.45703125 C2.5859375 17.09765625 2.5859375 17.09765625 2.5859375 13.09765625 C0.12302191 13.46821616 0.12302191 13.46821616 -2.4140625 15.09765625 C-3.93230384 17.8361166 -4.8083779 20.73795065 -5.7265625 23.72265625 C-5.99017578 24.52445313 -6.25378906 25.32625 -6.52539062 26.15234375 C-7.17234748 28.12850287 -7.79553457 30.1124154 -8.4140625 32.09765625 C-7.4240625 32.09765625 -6.4340625 32.09765625 -5.4140625 32.09765625 C-5.0840625 30.77765625 -4.7540625 29.45765625 -4.4140625 28.09765625 C-1.7740625 28.09765625 0.8659375 28.09765625 3.5859375 28.09765625 C3.9159375 29.41765625 4.2459375 30.73765625 4.5859375 32.09765625 C1.15371941 33.94100828 -2.28565377 35.77058534 -5.7265625 37.59765625 C-6.70302734 38.12230469 -7.67949219 38.64695313 -8.68554688 39.1875 C-9.62333984 39.68378906 -10.56113281 40.18007812 -11.52734375 40.69140625 C-12.39141846 41.15224609 -13.25549316 41.61308594 -14.14575195 42.08789062 C-16.4140625 43.09765625 -16.4140625 43.09765625 -19.4140625 43.09765625 C-19.51341338 38.7927061 -19.58575518 34.48837442 -19.63378906 30.18261719 C-19.65382582 28.71993373 -19.68106354 27.25732959 -19.71582031 25.79492188 C-19.76469475 23.68469615 -19.78710909 21.57553489 -19.8046875 19.46484375 C-19.82563477 18.19753418 -19.84658203 16.93022461 -19.86816406 15.62451172 C-19.18563556 10.32354037 -16.45902973 6.54908348 -12.2890625 3.28515625 C-7.99186521 0.01554961 -5.23718062 -0.03799033 0 0 Z " fill="#5DBEFF" transform="translate(96.4140625,70.90234375)"/>
<path d="M0 0 C2.5412304 2.10496059 3.559065 3.96255614 4.53393555 7.08496094 C4.92400032 8.31203766 4.92400032 8.31203766 5.32194519 9.56390381 C5.59082047 10.4451593 5.85969574 11.32641479 6.13671875 12.234375 C6.42102249 13.14576233 6.70532623 14.05714966 6.99824524 14.99615479 C7.59700341 16.92470456 8.19097831 18.85474496 8.78051758 20.78613281 C9.68115411 23.72926268 10.6021305 26.66546223 11.52539062 29.6015625 C12.1054082 31.47878351 12.68422356 33.35637648 13.26171875 35.234375 C13.53666672 36.10753357 13.81161469 36.98069214 14.09489441 37.88031006 C15.5675867 42.76207859 16.4039483 46.89598443 16 52 C15 53 15 53 11.4375 53.0625 C10.303125 53.041875 9.16875 53.02125 8 53 C7.49384702 51.73160474 6.99530901 50.46016898 6.5 49.1875 C6.2215625 48.47980469 5.943125 47.77210937 5.65625 47.04296875 C5 45 5 45 5 42 C-0.94 42 -6.88 42 -13 42 C-13.309375 43.629375 -13.61875 45.25875 -13.9375 46.9375 C-14.875 51.875 -14.875 51.875 -16 53 C-18.9375 53.1875 -18.9375 53.1875 -22 53 C-22.66 52.34 -23.32 51.68 -24 51 C-23.64236493 45.54076276 -22.45310247 40.53319155 -20.8203125 35.31640625 C-20.60688202 34.61660141 -20.39345154 33.91679657 -20.17355347 33.19578552 C-19.49684034 30.98275197 -18.81097561 28.77267759 -18.125 26.5625 C-17.67259785 25.08546375 -17.2207705 23.60825131 -16.76953125 22.13085938 C-15.52987825 18.08186731 -14.26677807 14.04058524 -13 10 C-12.69674805 9.0085498 -12.39349609 8.01709961 -12.08105469 6.99560547 C-11.44630432 4.97757835 -10.73388479 2.98412566 -10 1 C-6.88450128 -0.55774936 -3.3955612 -0.56480622 0 0 Z " fill="#2F2F2F" transform="translate(351,37)"/>
<path d="M0 0 C1.1127832 -0.01063477 1.1127832 -0.01063477 2.24804688 -0.02148438 C6.76954816 0.03085714 9.76446367 0.54145212 13.4375 3.4375 C14.375 5.5 14.375 5.5 14.4375 7.4375 C13.7775 8.0975 13.1175 8.7575 12.4375 9.4375 C10.81494164 9.2346802 9.19281068 9.01974376 7.58203125 8.73828125 C5.08337835 8.38783266 2.64757868 8.29015682 0.125 8.25 C-1.13763672 8.22873047 -1.13763672 8.22873047 -2.42578125 8.20703125 C-4.77791076 8.23477768 -4.77791076 8.23477768 -6.5625 10.4375 C-7.03483383 13.38028399 -7.03483383 13.38028399 -5.5625 16.4375 C-2.41974485 18.52271206 0.98638844 19.93657278 4.4375 21.4375 C9.81987699 24.08821949 13.69579851 26.95409702 16.4375 32.4375 C17.24091534 38.61232076 16.8089814 43.56140664 13.10546875 48.67578125 C8.51844846 53.52062001 3.52168193 55.71422033 -3.125 56 C-9.25321824 55.71596741 -14.21054605 53.78945395 -18.5625 49.4375 C-18.6875 45.8125 -18.6875 45.8125 -18.5625 42.4375 C-16.375 41.6875 -16.375 41.6875 -13.5625 41.4375 C-12.4796875 42.3965625 -12.4796875 42.3965625 -11.375 43.375 C-7.29373738 46.36792592 -3.47538963 45.94544283 1.4375 45.4375 C2.9225 44.9425 2.9225 44.9425 4.4375 44.4375 C4.91100661 39.96213642 4.91100661 39.96213642 3.38671875 35.9375 C1.10985531 34.1853646 -1.32691185 32.9817036 -3.90795898 31.73632812 C-15.15000635 26.27285268 -15.15000635 26.27285268 -17.9609375 20.4453125 C-19.4385552 15.51352354 -19.29903143 11.91056286 -16.9375 7.1875 C-11.8162552 1.2576376 -7.52121748 -0.20363122 0 0 Z " fill="#2F2F2F" transform="translate(162.5625,35.5625)"/>
<path d="M0 0 C5.67458259 1.89152753 9.32628019 5.65256038 12 11 C12.52779267 17.2117137 12.74403643 22.758349 9 28 C4.81359568 32.19784258 1.19686439 34.13704903 -4.75 34.3125 C-9.78533458 34.23187601 -13.21887516 33.3972543 -17 30 C-20.63892993 25.99163556 -22.31187153 22.30618726 -22.5 16.875 C-22.21085825 11.90632735 -21.1890375 8.14817547 -17.53515625 4.5625 C-11.73642951 -0.42809122 -7.45709103 -0.5703724 0 0 Z " fill="#FCAF0C" transform="translate(74,43)"/>
<path d="M0 0 C0.33 0 0.66 0 1 0 C1.00410889 0.58491211 1.00821777 1.16982422 1.01245117 1.77246094 C1.04542661 4.43265566 1.11606907 7.09057155 1.1875 9.75 C1.19330078 10.67039062 1.19910156 11.59078125 1.20507812 12.5390625 C1.28926133 15.12068071 1.41666053 17.48240011 2 20 C4.43608793 22.38388916 4.43608793 22.38388916 7 24 C7.3671739 26.91610574 6.63295417 29.07867306 6 32 C4.35 32.66 2.7 33.32 1 34 C1 34.99 1 35.98 1 37 C3.64 37 6.28 37 9 37 C9.09961729 41.41074704 9.17181669 45.82088095 9.21972656 50.23242188 C9.23971919 51.7299339 9.26692299 53.22736908 9.30175781 54.72460938 C9.68851092 71.7872463 9.68851092 71.7872463 3.1484375 79.05859375 C2.56320313 79.51363281 1.97796875 79.96867187 1.375 80.4375 C0.78460938 80.91058594 0.19421875 81.38367188 -0.4140625 81.87109375 C-3.98017909 84.40953635 -7.19084659 84.12829132 -11.4140625 84.09765625 C-12.14370209 84.0962413 -12.87334167 84.09482635 -13.62509155 84.09336853 C-15.95843585 84.08776531 -18.29168464 84.07521235 -20.625 84.0625 C-22.20572778 84.05748541 -23.78645707 84.05292243 -25.3671875 84.04882812 C-29.24482854 84.03779484 -33.12239807 84.02052811 -37 84 C-37 83.01 -37 82.02 -37 81 C-25.0859375 75.04296875 -25.0859375 75.04296875 -22.98730469 73.99755859 C-21.18453586 73.09263065 -19.39238471 72.16662702 -17.6015625 71.23828125 C-15 70 -15 70 -13 70 C-13.33 69.01 -13.66 68.02 -14 67 C-16.64 66.67 -19.28 66.34 -22 66 C-22.33 67.32 -22.66 68.64 -23 70 C-23.99 70 -24.98 70 -26 70 C-25.39814986 65.6365865 -24.36284883 61.78597346 -22.75 57.6875 C-22.35296875 56.63949219 -21.9559375 55.59148437 -21.546875 54.51171875 C-21.03640625 53.68285156 -20.5259375 52.85398438 -20 52 C-17.525 51.505 -17.525 51.505 -15 51 C-13.68 54.63 -12.36 58.26 -11 62 C-10.34 62 -9.68 62 -9 62 C-8.01 62 -7.02 62 -6 62 C-6 58.37 -6 54.74 -6 51 C-4.68 51 -3.36 51 -2 51 C-1.67 57.6 -1.34 64.2 -1 71 C3.56948338 69.88504311 3.56948338 69.88504311 7 67 C7.645369 63.90989264 7.645369 63.90989264 7.609375 60.36328125 C7.64160156 59.06455078 7.67382812 57.76582031 7.70703125 56.42773438 C7.72177586 55.05599405 7.73609331 53.68424907 7.75 52.3125 C7.77815875 50.92899889 7.80808608 49.54553256 7.83984375 48.16210938 C7.91066109 44.77467979 7.96330176 41.38794333 8 38 C5.36 38 2.72 38 0 38 C0 25.46 0 12.92 0 0 Z " fill="#C49DFE" transform="translate(114,33)"/>
<path d="M0 0 C3.50109583 1.9908192 5.230658 3.29018441 7.1875 6.8125 C7.91949903 10.60078364 7.90613144 13.73266171 5.703125 17.04296875 C2.01348444 19.63832151 -1.17039195 19.25187779 -5.5625 19.0625 C-6.75166016 19.03542969 -6.75166016 19.03542969 -7.96484375 19.0078125 C-9.91458348 18.96083082 -11.86369878 18.88909044 -13.8125 18.8125 C-12.54303486 23.63692184 -12.54303486 23.63692184 -8.8125 26.8125 C-6.68547641 26.87513899 -6.68547641 26.87513899 -4.4375 26.5 C-3.64472656 26.39429687 -2.85195312 26.28859375 -2.03515625 26.1796875 C-0.3030211 25.89353512 1.41558083 25.52507683 3.125 25.125 C3.805625 25.021875 4.48625 24.91875 5.1875 24.8125 C5.8475 25.4725 6.5075 26.1325 7.1875 26.8125 C7.125 28.75 7.125 28.75 6.1875 30.8125 C0.45493574 34.88563777 -4.94900767 35.56352044 -11.8125 34.8125 C-17.37258788 32.88220534 -21.20227912 29.03294175 -23.8125 23.8125 C-24.74989328 11.82615965 -24.74989328 11.82615965 -22.125 6.1875 C-15.15831846 -0.96747023 -9.68161865 -3.01558614 0 0 Z " fill="#2E2E2E" transform="translate(230.8125,56.1875)"/>
<path d="M0 0 C3.54958408 2.20649821 6.14108592 4.85935588 8.3125 8.4375 C8.97660635 12.35572748 9.06829057 14.30381414 6.8515625 17.62890625 C3.04664549 20.3391779 -0.39177472 19.87217009 -4.9375 19.6875 C-5.77796875 19.66945313 -6.6184375 19.65140625 -7.484375 19.6328125 C-9.55257395 19.58580798 -11.62018441 19.51406724 -13.6875 19.4375 C-13.0275 21.7475 -12.3675 24.0575 -11.6875 26.4375 C-10.10620971 26.66081199 -8.52228911 26.86554644 -6.9375 27.0625 C-6.05578125 27.17851563 -5.1740625 27.29453125 -4.265625 27.4140625 C-1.42202909 27.43991337 -0.14187642 26.76868721 2.3125 25.4375 C5.0625 25.8125 5.0625 25.8125 7.3125 26.4375 C8 28.25 8 28.25 8.3125 30.4375 C6.14061971 33.75919927 3.04999279 34.56986775 -0.6875 35.4375 C-6.01269891 35.96843501 -10.25992072 36.13831165 -15.125 33.75 C-19.39781983 29.89404065 -22.44056096 26.68569812 -22.890625 20.765625 C-23.06062045 9.60259068 -23.06062045 9.60259068 -19.6875 4.4375 C-13.68090398 -1.08969634 -7.73639804 -1.6192461 0 0 Z " fill="#2C2C2C" transform="translate(300.6875,55.5625)"/>
<path d="M0 0 C2.5 0.25 2.5 0.25 4.5 2.25 C4.6953125 5.5078125 4.6953125 5.5078125 4.625 9.375 C4.60695312 10.65632813 4.58890625 11.93765625 4.5703125 13.2578125 C4.54710937 14.24523438 4.52390625 15.23265625 4.5 16.25 C8.13 16.25 11.76 16.25 15.5 16.25 C15.54254356 18.24954746 15.54080783 20.25041636 15.5 22.25 C14.5 23.25 14.5 23.25 12.21484375 23.34765625 C10.84005859 23.33025391 10.84005859 23.33025391 9.4375 23.3125 C8.51839844 23.30347656 7.59929687 23.29445313 6.65234375 23.28515625 C5.94207031 23.27355469 5.23179687 23.26195313 4.5 23.25 C4.64017826 26.22953359 4.78686342 29.20849304 4.9375 32.1875 C4.97681641 33.03763672 5.01613281 33.88777344 5.05664062 34.76367188 C5.09853516 35.57255859 5.14042969 36.38144531 5.18359375 37.21484375 C5.22025146 37.9637085 5.25690918 38.71257324 5.29467773 39.48413086 C5.31771063 41.27461326 5.31771063 41.27461326 6.5 42.25 C7.82781878 42.45604085 9.16295895 42.6162959 10.5 42.75 C14.38888889 43.13888889 14.38888889 43.13888889 15.5 44.25 C15.625 46.75 15.625 46.75 15.5 49.25 C13.71430839 51.03569161 11.16346262 50.46468103 8.75 50.5 C7.70328125 50.52578125 6.6565625 50.5515625 5.578125 50.578125 C2.06428544 50.20355327 0.27995305 49.40786565 -2.5 47.25 C-4.20998778 44.43911527 -4.75149421 42.33478429 -4.75878906 39.06396484 C-4.76509338 38.24987152 -4.77139771 37.4357782 -4.77789307 36.59701538 C-4.7738446 35.72710968 -4.76979614 34.85720398 -4.765625 33.9609375 C-4.76753845 33.0613028 -4.7694519 32.16166809 -4.77142334 31.23477173 C-4.77278234 29.33685017 -4.76910583 27.43891924 -4.76074219 25.54101562 C-4.75001361 22.62869551 -4.76065994 19.71698876 -4.7734375 16.8046875 C-4.77211635 14.96093613 -4.76955486 13.11718515 -4.765625 11.2734375 C-4.76967346 10.39948334 -4.77372192 9.52552917 -4.77789307 8.62509155 C-4.71425847 0.47142585 -4.71425847 0.47142585 0 0 Z " fill="#2B2B2B" transform="translate(188.5,39.75)"/>
<path d="M0 0 C3.37080288 1.4446298 4.18923571 3.38396901 5.6484375 6.65234375 C7.11762512 10.37232679 8.48772947 14.12182997 9.79296875 17.90234375 C10.42793883 20.0660485 10.42793883 20.0660485 11.625 21.125 C14.265 14.525 16.905 7.925 19.625 1.125 C25.625 1.125 25.625 1.125 27.5 2.625 C27.87125 3.12 28.2425 3.615 28.625 4.125 C27.30757264 8.24200839 25.79849939 12.18830595 24.05859375 16.14453125 C23.57326172 17.24861328 23.08792969 18.35269531 22.58789062 19.49023438 C22.08451172 20.62783203 21.58113281 21.76542969 21.0625 22.9375 C20.55525391 24.09443359 20.04800781 25.25136719 19.52539062 26.44335938 C15.75362723 34.99637277 15.75362723 34.99637277 14.625 36.125 C11.75 36.4375 11.75 36.4375 8.625 36.125 C4.42514579 31.53973316 2.36367046 25.29814709 -0.125 19.6875 C-0.64449219 18.55505859 -1.16398438 17.42261719 -1.69921875 16.25585938 C-2.18519531 15.16208984 -2.67117187 14.06832031 -3.171875 12.94140625 C-3.61885742 11.94568604 -4.06583984 10.94996582 -4.52636719 9.92407227 C-5.47300782 6.80173773 -5.40996818 5.19379329 -4.375 2.125 C-2.375 0.125 -2.375 0.125 0 0 Z " fill="#2D2D2D" transform="translate(246.375,54.875)"/>
<path d="M0 0 C3.4375 0.1875 3.4375 0.1875 4.4375 1.1875 C4.53604422 2.7781331 4.56548694 4.37311477 4.56689453 5.96679688 C4.57004669 6.984552 4.57319885 8.00230713 4.57644653 9.05090332 C4.5744223 10.15816772 4.57239807 11.26543213 4.5703125 12.40625 C4.57126923 13.53446167 4.57222595 14.66267334 4.57321167 15.82507324 C4.57389368 18.21590226 4.57203797 20.60673311 4.56787109 22.99755859 C4.56252316 26.67159151 4.56781543 30.34550217 4.57421875 34.01953125 C4.57355797 36.33593777 4.57227682 38.65234422 4.5703125 40.96875 C4.57233673 42.0760144 4.57436096 43.18327881 4.57644653 44.32409668 C4.57329437 45.34185181 4.57014221 46.35960693 4.56689453 47.40820312 C4.56609894 48.30897583 4.56530334 49.20974854 4.56448364 50.13781738 C4.4375 52.1875 4.4375 52.1875 3.4375 53.1875 C0 53.375 0 53.375 -3.5625 53.1875 C-6.05511318 50.69488682 -5.81492752 49.9324321 -5.82128906 46.49414062 C-5.82759338 45.51973022 -5.83389771 44.54531982 -5.84039307 43.54138184 C-5.8363446 42.48616333 -5.83229614 41.43094482 -5.828125 40.34375 C-5.83003845 39.26371704 -5.8319519 38.18368408 -5.83392334 37.07092285 C-5.83528607 34.78442146 -5.83158352 32.49791236 -5.82324219 30.21142578 C-5.81254412 26.70197245 -5.82313473 23.19303107 -5.8359375 19.68359375 C-5.83461592 17.4661447 -5.83205356 15.24869597 -5.828125 13.03125 C-5.83217346 11.97603149 -5.83622192 10.92081299 -5.84039307 9.83361816 C-5.83408875 8.85920776 -5.82778442 7.88479736 -5.82128906 6.88085938 C-5.81969788 6.02085327 -5.81810669 5.16084717 -5.81646729 4.27478027 C-5.33682442 0.3327407 -3.74381399 0.19704284 0 0 Z " fill="#313131" transform="translate(377.5625,36.8125)"/>
<path d="M0 0 C1.32 0 2.64 0 4 0 C5.32 3.63 6.64 7.26 8 11 C8.66 11 9.32 11 10 11 C10.99 11 11.98 11 13 11 C13 13.97 13 16.94 13 20 C13.99 20.33 14.98 20.66 16 21 C15.113125 21.391875 14.22625 21.78375 13.3125 22.1875 C9.94188455 23.81224733 9.94188455 23.81224733 7.6875 26.4375 C1.87619362 31.97851306 -3.60276665 33.24195987 -11.5625 33.25 C-13.70900883 33.18639974 -15.85535934 33.10982513 -18 33 C-18 32.01 -18 31.02 -18 30 C-6.0859375 24.04296875 -6.0859375 24.04296875 -3.98730469 22.99755859 C-2.18453586 22.09263065 -0.39238471 21.16662702 1.3984375 20.23828125 C4 19 4 19 6 19 C5.67 18.01 5.34 17.02 5 16 C2.36 15.67 -0.28 15.34 -3 15 C-3.33 16.32 -3.66 17.64 -4 19 C-4.99 19 -5.98 19 -7 19 C-6.41249992 14.5470164 -5.26681981 10.81179158 -3.5 6.6875 C-3.0565625 5.63949219 -2.613125 4.59148437 -2.15625 3.51171875 C-1 1 -1 1 0 0 Z " fill="#AAA6FE" transform="translate(95,84)"/>
<path d="M0 0 C7.27465262 4.10217565 11.696797 9.18195897 14.875 16.90234375 C16.67152565 23.5270321 16.40767342 30.20087987 13.5625 36.4375 C12.9025 36.4375 12.2425 36.4375 11.5625 36.4375 C11.7275 35.674375 11.8925 34.91125 12.0625 34.125 C13.32787906 24.79282945 13.30210825 17.3156642 7.5625 9.4375 C0.89221241 2.9420385 -5.52565078 0.98688548 -14.76733398 1.00366211 C-21.75571748 1.20942881 -25.31174699 3.41710945 -30.17578125 8.1171875 C-35.85579435 14.21744023 -36.97560473 20.11953678 -36.8125 28.3359375 C-36.0108896 34.96592356 -32.98403919 40.33915378 -28.125 44.875 C-20.63180346 50.55117677 -13.65111987 50.85211289 -4.4375 50.4375 C-4.4375 51.0975 -4.4375 51.7575 -4.4375 52.4375 C-11.80957108 54.33996996 -18.38502677 54.17441848 -25.234375 50.76171875 C-32.70962042 46.26861911 -37.4637717 40.90179136 -40.01953125 32.53125 C-41.81702584 23.52697804 -40.12031186 17.06303769 -35.625 9.3125 C-33.21263142 6.14195844 -30.68556389 3.70130211 -27.4375 1.4375 C-26.59251953 0.84388672 -26.59251953 0.84388672 -25.73046875 0.23828125 C-17.60582025 -4.63650785 -8.3687255 -3.87768275 0 0 Z " fill="#C59EFD" transform="translate(81.4375,34.5625)"/>
<path d="M0 0 C1.051875 -0.00386719 1.051875 -0.00386719 2.125 -0.0078125 C4 0.125 4 0.125 6 1.125 C6.625 4.1875 6.625 4.1875 7 7.125 C7.99 7.455 8.98 7.785 10 8.125 C10.33058394 11.67877738 10.20159367 13.7305776 8.5625 16.9375 C4.95599074 20.01622742 1.62133565 20.01637886 -3 20.125 C-3.33 19.465 -3.66 18.805 -4 18.125 C-4.825 17.815625 -5.65 17.50625 -6.5 17.1875 C-7.7375 16.6615625 -7.7375 16.6615625 -9 16.125 C-10.20190901 12.51927296 -10.32670315 9.9147565 -10 6.125 C-7.11500862 1.70134654 -5.23331216 -0.01924012 0 0 Z " fill="#2D2D2C" transform="translate(69,49.875)"/>
<path d="M0 0 C-0.66 1.98 -1.32 3.96 -2 6 C-1.01 6 -0.02 6 1 6 C1.33 4.68 1.66 3.36 2 2 C4.64 2 7.28 2 10 2 C10.33 3.32 10.66 4.64 11 6 C7.56778191 7.84335203 4.12840873 9.67292909 0.6875 11.5 C-0.28896484 12.02464844 -1.26542969 12.54929687 -2.27148438 13.08984375 C-3.20927734 13.58613281 -4.14707031 14.08242187 -5.11328125 14.59375 C-5.97735596 15.05458984 -6.84143066 15.51542969 -7.73168945 15.99023438 C-10 17 -10 17 -13 17 C-13 12.71 -13 8.42 -13 4 C-3.375 -1.125 -3.375 -1.125 0 0 Z " fill="#9BACFF" transform="translate(90,97)"/>
<path d="M0 0 C0.14539953 3.41621788 0.23409725 6.83163991 0.3125 10.25 C0.3753418 11.70212891 0.3753418 11.70212891 0.43945312 13.18359375 C0.563325 20.3681625 0.563325 20.3681625 -2.3125 23.59375 C-5.1550239 25.08111715 -7.91142348 26.13807167 -11 27 C-10.505 25.515 -10.505 25.515 -10 24 C-9.91893314 22.44578271 -9.89243102 20.88832973 -9.90234375 19.33203125 C-9.90556641 18.43935547 -9.90878906 17.54667969 -9.91210938 16.62695312 C-9.92048828 15.69818359 -9.92886719 14.76941406 -9.9375 13.8125 C-9.94426758 12.40194336 -9.94426758 12.40194336 -9.95117188 10.96289062 C-9.96295374 8.64186288 -9.97940442 6.32096356 -10 4 C-8.71086513 3.32845067 -7.41859796 2.66291141 -6.125 2 C-5.40570313 1.62875 -4.68640625 1.2575 -3.9453125 0.875 C-2 0 -2 0 0 0 Z " fill="#85B1FF" transform="translate(122,79)"/>
<path d="M0 0 C1.32 0 2.64 0 4 0 C5.03444249 2.57861025 6.05272284 5.16174635 7.0625 7.75 C7.35705078 8.47960937 7.65160156 9.20921875 7.95507812 9.9609375 C8.22900391 10.66992188 8.50292969 11.37890625 8.78515625 12.109375 C9.17006226 13.08342285 9.17006226 13.08342285 9.56274414 14.07714844 C10.08330284 16.36632786 9.72364304 17.79256664 9 20 C8.01 19.67 7.02 19.34 6 19 C5.67 18.01 5.34 17.02 5 16 C2.36 15.67 -0.28 15.34 -3 15 C-3.33 16.32 -3.66 17.64 -4 19 C-4.99 19 -5.98 19 -7 19 C-6.41249992 14.5470164 -5.26681981 10.81179158 -3.5 6.6875 C-3.0565625 5.63949219 -2.613125 4.59148437 -2.15625 3.51171875 C-1 1 -1 1 0 0 Z " fill="#F8F9FE" transform="translate(95,84)"/>
<path d="M0 0 C0 1.98 0 3.96 0 6 C-1.578076 6.84324672 -3.1627042 7.67423918 -4.75 8.5 C-5.63171875 8.9640625 -6.5134375 9.428125 -7.421875 9.90625 C-10 11 -10 11 -14 11 C-14 14.63 -14 18.26 -14 22 C-15.65 22.66 -17.3 23.32 -19 24 C-19.67354499 22.56570999 -20.33859701 21.12742943 -21 19.6875 C-21.37125 18.88699219 -21.7425 18.08648437 -22.125 17.26171875 C-23 15 -23 15 -23 12 C-19.35601023 9.99662704 -15.70951011 7.99786858 -12.0625 6 C-11.02158203 5.42765625 -9.98066406 4.8553125 -8.90820312 4.265625 C-7.42416992 3.45351562 -7.42416992 3.45351562 -5.91015625 2.625 C-4.53549194 1.87089844 -4.53549194 1.87089844 -3.13305664 1.1015625 C-1 0 -1 0 0 0 Z " fill="#70B9FF" transform="translate(122,73)"/>
<path d="M0 0 C0.98613281 0.00322266 1.97226563 0.00644531 2.98828125 0.00976562 C4.02082031 0.01814453 5.05335937 0.02652344 6.1171875 0.03515625 C7.67759766 0.04192383 7.67759766 0.04192383 9.26953125 0.04882812 C11.84380712 0.06063673 14.41796896 0.0771055 16.9921875 0.09765625 C16.9921875 0.42765625 16.9921875 0.75765625 16.9921875 1.09765625 C16.39792969 1.17677246 15.80367187 1.25588867 15.19140625 1.33740234 C7.97789378 2.51114067 2.33410951 5.17837643 -4.0078125 8.72265625 C-5.86014575 9.73902566 -7.71422535 10.75222099 -9.5703125 11.76171875 C-10.77880859 12.43388428 -10.77880859 12.43388428 -12.01171875 13.11962891 C-14.0078125 14.09765625 -14.0078125 14.09765625 -16.0078125 14.09765625 C-16.3378125 15.41765625 -16.6678125 16.73765625 -17.0078125 18.09765625 C-17.51572771 12.76454656 -16.35407163 10.23645044 -13.0078125 6.09765625 C-8.76217864 2.06863637 -5.89818913 -0.03389764 0 0 Z " fill="#3BCAFF" transform="translate(94.0078125,70.90234375)"/>
<path d="M0 0 C3.125 0.375 3.125 0.375 6 1 C6.6875 3.3125 6.6875 3.3125 7 6 C6.51966309 6.38414063 6.03932617 6.76828125 5.54443359 7.1640625 C3.08685961 10.08549095 3.57251997 13.41556797 3.6015625 17.0625 C3.59869232 17.85019775 3.59582214 18.63789551 3.59286499 19.44946289 C3.59082478 21.11377685 3.59635168 22.77811481 3.60888672 24.44238281 C3.62494191 26.99077947 3.60903756 29.53759021 3.58984375 32.0859375 C3.59182619 33.7031285 3.59566989 35.32031852 3.6015625 36.9375 C3.59548981 37.70006104 3.58941711 38.46262207 3.5831604 39.24829102 C3.61203951 43.35919713 3.61203951 43.35919713 5.38818359 46.9609375 C7.23459208 48.15123052 8.84339803 48.62817207 11 49 C11 49.66 11 50.32 11 51 C8.8125 51.3125 8.8125 51.3125 6 51 C2.2874055 48.20068242 1.11394855 46.71387368 0.37231445 42.06762695 C0.34489082 40.54142178 0.34323778 39.01460119 0.36328125 37.48828125 C0.35290329 36.67884567 0.34252533 35.8694101 0.33183289 35.03544617 C0.30221483 32.46069467 0.30552067 29.88739073 0.3125 27.3125 C0.30361451 24.72730386 0.28771326 22.14249311 0.2610321 19.55741882 C0.24608402 17.95153792 0.24233326 16.34550636 0.25080872 14.73957825 C0.39870302 10.40464743 0.39870302 10.40464743 -2 7 C-2.25 4.5 -2.25 4.5 -2 2 C-1.34 1.34 -0.68 0.68 0 0 Z " fill="#515151" transform="translate(13,10)"/>
<path d="M0 0 C0.66 0 1.32 0 2 0 C2.8393758 3.10256512 3.6704505 6.20729444 4.5 9.3125 C4.73847656 10.19357422 4.97695313 11.07464844 5.22265625 11.98242188 C5.44824219 12.82998047 5.67382812 13.67753906 5.90625 14.55078125 C6.11572266 15.33106689 6.32519531 16.11135254 6.54101562 16.9152832 C7 19 7 19 7 22 C3.04 22 -0.92 22 -5 22 C-4.38955672 14.36945905 -2.20378179 7.29810526 0 0 Z " fill="#ECECEC" transform="translate(346,50)"/>
<path d="M0 0 C0.33 0 0.66 0 1 0 C1.00410889 0.58491211 1.00821777 1.16982422 1.01245117 1.77246094 C1.04542661 4.43265566 1.11606907 7.09057155 1.1875 9.75 C1.19330078 10.67039062 1.19910156 11.59078125 1.20507812 12.5390625 C1.28926133 15.12068071 1.41666053 17.48240011 2 20 C4.43608793 22.38388916 4.43608793 22.38388916 7 24 C7.3671739 26.91610574 6.63295417 29.07867306 6 32 C4.35 32.66 2.7 33.32 1 34 C1 34.99 1 35.98 1 37 C3.64 37 6.28 37 9 37 C9 47.56 9 58.12 9 69 C8.67 69 8.34 69 8 69 C8 58.77 8 48.54 8 38 C5.36 38 2.72 38 0 38 C0 25.46 0 12.92 0 0 Z " fill="#CCCCF4" transform="translate(114,33)"/>
<path d="M0 0 C-3.59253531 2.88685873 -7.48784818 5.07557367 -11.5 7.3125 C-12.20253906 7.70622803 -12.90507813 8.09995605 -13.62890625 8.50561523 C-19.66146635 11.86197949 -25.78299077 14.99746713 -32 18 C-32.33 16.35 -32.66 14.7 -33 13 C-29.01436684 10.80610643 -25.00945747 8.64999893 -21 6.5 C-19.87464844 5.87996094 -18.74929687 5.25992188 -17.58984375 4.62109375 C-11.43476696 1.34558505 -7.01498846 -0.89406716 0 0 Z " fill="#4FC3FF" transform="translate(111,72)"/>
<path d="M0 0 C1.0887344 3.5287349 0.93321443 5.81303288 -0.64453125 9.25 C-3.42163956 12.83543091 -7.8161529 14.50675194 -12 16 C-12.99 16 -13.98 16 -15 16 C-15.53787626 12.61137954 -15.46274655 10.13374854 -14 7 C-9.58361947 4.00878275 -4.93828099 1.98168437 0 0 Z " fill="#66BBFF" transform="translate(92,85)"/>
<path d="M0 0 C-0.99 0.66 -1.98 1.32 -3 2 C-3.639375 2.7425 -4.27875 3.485 -4.9375 4.25 C-9.63867505 8.99365555 -16.39187817 12.5448793 -23.00390625 13.37890625 C-25.36893938 13.37554205 -27.65290783 13.28040482 -30 13 C-29.43917725 12.72365723 -28.87835449 12.44731445 -28.30053711 12.16259766 C-25.90479085 10.95188518 -23.54878402 9.68219218 -21.19140625 8.3984375 C-20.27939453 7.90859375 -19.36738281 7.41875 -18.42773438 6.9140625 C-16.51733739 5.88789152 -14.61105762 4.85401854 -12.70898438 3.8125 C-11.79568359 3.32523437 -10.88238281 2.83796875 -9.94140625 2.3359375 C-9.11326416 1.88782715 -8.28512207 1.4397168 -7.43188477 0.97802734 C-4.77253417 -0.09147958 -2.83912988 -0.18916988 0 0 Z " fill="#B8A1FF" transform="translate(111,104)"/>
<path d="M0 0 C0.33 0 0.66 0 1 0 C1.29350875 3.05249101 1.41545701 5.95506823 1 9 C-2.0939583 12.54895217 -5.52456035 13.7510401 -10 15 C-9.67 14.01 -9.34 13.02 -9 12 C-8.96045766 9.66700175 -8.95598268 7.33291811 -9 5 C-8.43410156 4.72285156 -7.86820312 4.44570312 -7.28515625 4.16015625 C-6.55167969 3.79792969 -5.81820312 3.43570313 -5.0625 3.0625 C-3.96615234 2.52302734 -3.96615234 2.52302734 -2.84765625 1.97265625 C-1.03750973 1.13628173 -1.03750973 1.13628173 0 0 Z " fill="#B8A1FF" transform="translate(121,91)"/>
<path d="M0 0 C-1.68710359 7.10993658 -1.68710359 7.10993658 -5.42578125 9.64453125 C-7.92021701 10.86881585 -10.41190792 11.99001285 -13 13 C-13 10.03 -13 7.06 -13 4 C-11.40233897 3.13372601 -9.79660056 2.28233535 -8.1875 1.4375 C-7.29417969 0.96183594 -6.40085937 0.48617187 -5.48046875 -0.00390625 C-3 -1 -3 -1 0 0 Z " fill="#86B2FF" transform="translate(90,97)"/>
<path d="M0 0 C0.33 1.32 0.66 2.64 1 4 C-0.28935919 5.14842923 -1.58156579 6.29366227 -2.875 7.4375 C-3.59429687 8.07558594 -4.31359375 8.71367188 -5.0546875 9.37109375 C-8.21192887 12.01480791 -10.07813951 12.11438283 -14.125 12.0625 C-15.03507812 12.05347656 -15.94515625 12.04445313 -16.8828125 12.03515625 C-17.58148438 12.02355469 -18.28015625 12.01195313 -19 12 C-15.60063328 8.11000303 -11.77568943 6.0598982 -7.25 3.75 C-6.55261719 3.38648437 -5.85523437 3.02296875 -5.13671875 2.6484375 C-3.42794346 1.75893803 -1.71443502 0.87854133 0 0 Z " fill="#D499FE" transform="translate(119,105)"/>
<path d="M0 0 C1.875 1.1875 1.875 1.1875 3 3 C3 4.65 3 6.3 3 8 C-1.29 8 -5.58 8 -10 8 C-10 3 -10 3 -8.375 1.1875 C-5.3347031 -0.33264845 -3.35958291 -0.42888292 0 0 Z " fill="#F0F0F0" transform="translate(297,62)"/>
<path d="M0 0 C0.99 0.66 1.98 1.32 3 2 C3 3.98 3 5.96 3 8 C-0.96 8 -4.92 8 -9 8 C-9 3 -9 3 -7.875 1.1875 C-5.15523346 -0.53501881 -3.15413751 -0.32855599 0 0 Z " fill="#F6F6F6" transform="translate(226,62)"/>
<path d="M0 0 C0 3.96 0 7.92 0 12 C-1.65 12.66 -3.3 13.32 -5 14 C-5.69937202 12.5682384 -6.38412718 11.12932968 -7.0625 9.6875 C-7.44535156 8.88699219 -7.82820313 8.08648437 -8.22265625 7.26171875 C-9 5 -9 5 -8 2 C-7.01 2 -6.02 2 -5 2 C-0.75 0 -0.75 0 0 0 Z " fill="#7BB7FF" transform="translate(108,83)"/>
<path d="M0 0 C2.56359397 0.38287442 3.77763418 0.7771022 5.6328125 2.63671875 C11.40631992 10.57151298 12.90019713 17.16402256 12 27 C10.984375 29.87109375 10.984375 29.87109375 10 32 C9.34 32 8.68 32 8 32 C8.165 31.236875 8.33 30.47375 8.5 29.6875 C10.03218213 18.38765679 8.52589612 11.11607584 1.6875 1.875 C1.130625 1.25625 0.57375 0.6375 0 0 Z " fill="#A187FD" transform="translate(85,39)"/>
<path d="M0 0 C5 3 5 3 6 4 C5.82364548 6.69082872 5.38164079 9.32851446 5 12 C3.35 12.66 1.7 13.32 0 14 C0 9.38 0 4.76 0 0 Z " fill="#FEAF07" transform="translate(115,53)"/>
<path d="M0 0 C0.99 0 1.98 0 3 0 C3 6.6 3 13.2 3 20 C2.01 20 1.02 20 0 20 C0 13.4 0 6.8 0 0 Z " fill="#FCFCFD" transform="translate(108,84)"/>
<path d="M0 0 C0.33 0 0.66 0 1 0 C1.01458252 1.07483643 1.02916504 2.14967285 1.04418945 3.25708008 C1.1021489 7.24374717 1.17938129 11.22984801 1.26245117 15.21606445 C1.29571172 16.94155693 1.32374019 18.66715849 1.34643555 20.39282227 C1.37996153 22.87303166 1.43227406 25.3522403 1.48828125 27.83203125 C1.49467117 28.60400345 1.5010611 29.37597565 1.50764465 30.17134094 C1.59330376 34.32638258 1.59330376 34.32638258 3.39526367 37.9675293 C5.23829514 39.15331662 6.84853514 39.62905778 9 40 C9 40.66 9 41.32 9 42 C5.92429719 42.34174476 4.44085032 42.30211979 1.85253906 40.52832031 C-0.78462669 36.92915208 -0.49976207 33.58175616 -0.390625 29.296875 C-0.38496521 28.45908508 -0.37930542 27.62129517 -0.37347412 26.75811768 C-0.35112329 24.08815834 -0.30093098 21.41955213 -0.25 18.75 C-0.22993325 16.93751941 -0.21168278 15.12501774 -0.1953125 13.3125 C-0.15126294 8.87448041 -0.08224566 4.43746944 0 0 Z " fill="#0E0E0E" transform="translate(15,19)"/>
<path d="M0 0 C0.35915493 4.42957746 0.35915493 4.42957746 -1.0625 6.6875 C-3.84310871 8.57113816 -6.7634066 9.2061186 -10 10 C-10 8.35 -10 6.7 -10 5 C-8.52227402 4.1641146 -7.04277811 3.33135744 -5.5625 2.5 C-4.32693359 1.80390625 -4.32693359 1.80390625 -3.06640625 1.09375 C-1 0 -1 0 0 0 Z " fill="#9BABFF" transform="translate(122,86)"/>
<path d="M0 0 C1 3 1 3 0.375 5.015625 C-1.40944842 7.59090852 -3.17948423 8.42173385 -6 9.75 C-6.886875 10.17796875 -7.77375 10.6059375 -8.6875 11.046875 C-11 12 -11 12 -13 12 C-13 11.01 -13 10.02 -13 9 C-11.96939453 8.52820313 -11.96939453 8.52820313 -10.91796875 8.046875 C-10.01691406 7.61890625 -9.11585937 7.1909375 -8.1875 6.75 C-7.29417969 6.33234375 -6.40085937 5.9146875 -5.48046875 5.484375 C-2.89071669 3.93460211 -1.61819166 2.51599234 0 0 Z " fill="#75B8FF" transform="translate(91,89)"/>
<path d="M0 0 C0.33 0 0.66 0 1 0 C1 1.65 1 3.3 1 5 C-5.625 9 -5.625 9 -9 9 C-9 7.68 -9 6.36 -9 5 C-8.43410156 4.72285156 -7.86820312 4.44570312 -7.28515625 4.16015625 C-6.55167969 3.79792969 -5.81820312 3.43570313 -5.0625 3.0625 C-3.96615234 2.52302734 -3.96615234 2.52302734 -2.84765625 1.97265625 C-1.03750973 1.13628173 -1.03750973 1.13628173 0 0 Z " fill="#AAA6FF" transform="translate(121,91)"/>
<path d="M0 0 C1.2375 0.33 2.475 0.66 3.75 1 C9.49772546 2.30171773 15.1373892 2.17855667 21 2 C21 2.66 21 3.32 21 4 C15.03927619 5.53825131 9.2544355 5.88567109 3.5 3.625 C1 2 1 2 0 0 Z " fill="#A38BFD" transform="translate(56,83)"/>
<path d="M0 0 C1.67542976 0.28604898 3.34385343 0.61781233 5 1 C5.625 2.875 5.625 2.875 6 5 C5.34 5.66 4.68 6.32 4 7 C1.375 6.625 1.375 6.625 -1 6 C-1.042721 4.33388095 -1.04063832 2.66617115 -1 1 C-0.67 0.67 -0.34 0.34 0 0 Z " fill="#F8F4EF" transform="translate(76,51)"/>
<path d="M0 0 C0.33 0 0.66 0 1 0 C1.33 6.6 1.66 13.2 2 20 C1.34 20.33 0.68 20.66 0 21 C0 14.07 0 7.14 0 0 Z M0 21 C0 21.66 0 22.32 0 23 C-1.96466413 24.06775224 -3.96855359 25.06553465 -6 26 C-6.66 25.67 -7.32 25.34 -8 25 C-3.375 21 -3.375 21 0 21 Z " fill="#C6BDFE" transform="translate(111,84)"/>
<path d="M0 0 C1.1055189 0.93590504 2.20935453 1.87379858 3.3125 2.8125 C3.92738281 3.33457031 4.54226562 3.85664062 5.17578125 4.39453125 C8.51952278 7.3373102 8.51952278 7.3373102 10 9 C10 9.66 10 10.32 10 11 C4.70841026 9.59928507 2.22521956 6.14512755 -1 2 C-0.67 1.34 -0.34 0.68 0 0 Z " fill="#B797FE" transform="translate(47,74)"/>
<path d="M0 0 C1.74216797 0.02707031 1.74216797 0.02707031 3.51953125 0.0546875 C4.39996094 0.07789062 5.28039062 0.10109375 6.1875 0.125 C3.50743419 2.80506581 1.46688836 2.79488365 -2.25 3.375 C-3.40371094 3.56578125 -4.55742188 3.7565625 -5.74609375 3.953125 C-8.8125 4.125 -8.8125 4.125 -11.8125 2.125 C-7.73526266 0.17468308 -4.49557578 -0.09081971 0 0 Z " fill="#BD8FFD" transform="translate(68.8125,31.875)"/>
<path d="M0 0 C0.66 0.33 1.32 0.66 2 1 C2 2.65 2 4.3 2 6 C0.35 6.66 -1.3 7.32 -3 8 C-3.66 6.35 -4.32 4.7 -5 3 C-2.625 1.4375 -2.625 1.4375 0 0 Z " fill="#8BB1FF" transform="translate(106,89)"/>
<path d="M0 0 C2.48660455 0.3878678 3.72345219 0.70962479 5.484375 2.55859375 C5.90203125 3.17863281 6.3196875 3.79867187 6.75 4.4375 C7.17796875 5.05496094 7.6059375 5.67242187 8.046875 6.30859375 C9 8 9 8 9 10 C8.34 10 7.68 10 7 10 C5.52734375 8.3203125 5.52734375 8.3203125 3.9375 6.125 C3.41027344 5.40570313 2.88304688 4.68640625 2.33984375 3.9453125 C1 2 1 2 0 0 Z " fill="#AC8EFD" transform="translate(85,39)"/>
<path d="M0 0 C2 1 2 1 3.125 4.0625 C3.41375 5.031875 3.7025 6.00125 4 7 C2.02 7 0.04 7 -2 7 C-1.34 4.69 -0.68 2.38 0 0 Z " fill="#89BBFF" transform="translate(95,89)"/>
<path d="M0 0 C0.99 0 1.98 0 3 0 C3 1.98 3 3.96 3 6 C1.0625 5.6875 1.0625 5.6875 -1 5 C-1.33 4.01 -1.66 3.02 -2 2 C-1.34 1.34 -0.68 0.68 0 0 Z " fill="#9EADFF" transform="translate(105,95)"/>
<path d="M0 0 C0.86625 0.7115625 0.86625 0.7115625 1.75 1.4375 C3.92582084 2.9484867 5.42602448 3.54036151 8 4 C8 4.66 8 5.32 8 6 C5.75 6.25 5.75 6.25 3 6 C0.6875 4 0.6875 4 -1 2 C-0.67 1.34 -0.34 0.68 0 0 Z " fill="#28262A" transform="translate(16,55)"/>
<path d="M0 0 C0.99 0.33 1.98 0.66 3 1 C3 2.32 3 3.64 3 5 C1.68 4.67 0.36 4.34 -1 4 C-0.67 2.68 -0.34 1.36 0 0 Z " fill="#EFEFEF" transform="translate(14,12)"/>
</svg>
