<svg width="50" height="54" viewBox="0 0 50 54" fill="none" xmlns="http://www.w3.org/2000/svg">
<path d="M25.8187 44.05H11.365C10.1122 44.05 9.09164 42.9534 9.09164 41.6022V12.2372C9.09164 10.8883 10.1101 9.78937 11.365 9.78937H38.6362C39.8889 9.78937 40.9095 10.886 40.9095 12.2372V33.2261C40.9095 33.6781 41.2482 34.0428 41.6679 34.0428C42.0877 34.0428 42.4264 33.678 42.4264 33.2261V12.2372C42.4264 9.98899 40.7262 8.15826 38.6383 8.15826H11.3649C9.27698 8.15826 7.57678 9.98899 7.57678 12.2372V41.6022C7.57678 43.8504 9.27698 45.6811 11.3649 45.6811H25.8186C26.2384 45.6811 26.5771 45.3164 26.5771 44.8644C26.5771 44.4125 26.2383 44.0477 25.8186 44.0477L25.8187 44.05Z" fill="black"/>
<path d="M12.1235 13.054C12.5432 13.054 12.882 12.6893 12.882 12.2374C12.882 11.7854 12.5432 11.4207 12.1235 11.4207H11.365C10.9453 11.4207 10.6066 11.7854 10.6066 12.2374C10.6066 12.6893 10.9453 13.054 11.365 13.054H12.1235Z" fill="black"/>
<path d="M15.1528 13.054C15.5725 13.054 15.9113 12.6893 15.9113 12.2374C15.9113 11.7854 15.5725 11.4207 15.1528 11.4207H14.3943C13.9746 11.4207 13.6359 11.7854 13.6359 12.2374C13.6359 12.6893 13.9746 13.054 14.3943 13.054H15.1528Z" fill="black"/>
<path d="M18.1825 13.054C18.6022 13.054 18.9409 12.6893 18.9409 12.2374C18.9409 11.7854 18.6022 11.4207 18.1825 11.4207H17.424C17.0043 11.4207 16.6655 11.7854 16.6655 12.2374C16.6655 12.6893 17.0043 13.054 17.424 13.054H18.1825Z" fill="black"/>
<path d="M29.5449 27.7366V19.5784C29.5449 17.3302 27.8447 15.4995 25.7568 15.4995H15.151C13.0631 15.4995 11.3629 17.3302 11.3629 19.5784V27.7366C11.3629 29.9848 13.0631 31.8155 15.151 31.8155H25.7568C27.8447 31.8155 29.5449 29.9848 29.5449 27.7366ZM12.8795 27.7366V19.5784C12.8795 18.2294 13.8979 17.1306 15.1528 17.1306H25.7586C27.0114 17.1306 28.0319 18.2272 28.0319 19.5784V27.7366C28.0319 29.0855 27.0135 30.1844 25.7586 30.1844H15.1528C13.9001 30.1844 12.8795 29.0878 12.8795 27.7366Z" fill="black"/>
<path d="M23.0613 22.3292L19.8207 19.8355C19.3562 19.4776 18.7533 19.4317 18.2462 19.7116C17.7391 19.9938 17.4238 20.549 17.4238 21.1638V26.1513C17.4238 26.7661 17.7391 27.3213 18.2462 27.6035C18.4657 27.7251 18.7043 27.7847 18.9408 27.7847C19.2497 27.7847 19.5586 27.6815 19.8207 27.4796L23.0634 24.9882C23.4597 24.683 23.6983 24.1852 23.6983 23.6599C23.6983 23.1345 23.4618 22.639 23.0634 22.3339L23.0613 22.3292ZM18.9408 26.1512V21.1638L22.1835 23.6575L18.9408 26.1512Z" fill="black"/>
<path d="M33.3329 15.4995C32.0801 15.4995 31.0596 16.5961 31.0596 17.9473V34.2607C31.0596 35.6097 32.078 36.7086 33.3329 36.7086H36.3626C37.6153 36.7086 38.6359 35.612 38.6359 34.2607V17.9473C38.6359 16.5983 37.6175 15.4995 36.3626 15.4995H33.3329ZM37.121 17.9473V34.2607C37.121 34.7104 36.7823 35.0774 36.3626 35.0774H33.3329C32.9153 35.0774 32.5744 34.7126 32.5744 34.2607V17.9473C32.5744 17.4977 32.9132 17.1306 33.3329 17.1306H36.3626C36.7802 17.1306 37.121 17.4954 37.121 17.9473Z" fill="black"/>
<path d="M21.9706 34.261C21.9706 33.809 21.6318 33.4443 21.2121 33.4443H15.153C14.7333 33.4443 14.3945 33.809 14.3945 34.261C14.3945 34.7129 14.7333 35.0777 15.153 35.0777H21.2121C21.6318 35.0777 21.9706 34.7129 21.9706 34.261Z" fill="black"/>
<path d="M18.9415 35.8918H16.6681C16.2484 35.8918 15.9097 36.2566 15.9097 36.7085C15.9097 37.1605 16.2484 37.5252 16.6681 37.5252H18.9415C19.3612 37.5252 19.6999 37.1605 19.6999 36.7085C19.6999 36.2566 19.3612 35.8918 18.9415 35.8918Z" fill="black"/>
<path d="M18.9415 38.3397H16.6681C16.2484 38.3397 15.9097 38.7045 15.9097 39.1564C15.9097 39.6084 16.2484 39.9731 16.6681 39.9731H18.9415C19.3612 39.9731 19.6999 39.6084 19.6999 39.1564C19.6999 38.7045 19.3612 38.3397 18.9415 38.3397Z" fill="black"/>
<path d="M18.9415 40.7852H16.6681C16.2484 40.7852 15.9097 41.15 15.9097 41.6019C15.9097 42.0538 16.2484 42.4186 16.6681 42.4186H18.9415C19.3612 42.4186 19.6999 42.0538 19.6999 41.6019C19.6999 41.15 19.3612 40.7852 18.9415 40.7852Z" fill="black"/>
<path d="M49.9982 44.05C49.9982 42.0816 48.6943 40.4321 46.9685 40.0536V37.6034C46.9685 35.7612 45.5772 34.2609 43.8643 34.2609C43.2741 34.2609 42.6967 34.4421 42.1982 34.7839L37.6366 37.9085C35.668 39.2575 33.3926 39.9709 31.0594 39.9709C28.9714 39.9709 27.2712 41.8017 27.2712 44.0499C27.2712 46.2982 28.9714 48.1289 31.0594 48.1289V53.0223C31.0594 53.4742 31.3981 53.8389 31.8178 53.8389C32.2375 53.8389 32.5763 53.4742 32.5763 53.0223V48.2344C34.3703 48.4753 36.0981 49.1337 37.6385 50.189L42.2 53.3136C42.6986 53.6554 43.276 53.8367 43.8661 53.8367C45.577 53.8367 46.9704 52.3386 46.9704 50.4941V48.044C48.6961 47.6654 50 46.0183 50 44.0476L49.9982 44.05ZM45.4537 50.4944C45.4537 51.4373 44.74 52.2058 43.8643 52.2058C43.5617 52.2058 43.2656 52.1141 43.0121 51.9374L38.4505 48.8128C36.6673 47.5901 34.6581 46.8421 32.5747 46.5944V44.0479C32.5747 43.596 32.2359 43.2312 31.8162 43.2312C31.3965 43.2312 31.0577 43.596 31.0577 44.0479V46.4958C29.805 46.4958 28.7844 45.3992 28.7844 44.0479C28.7844 42.699 29.8028 41.6001 31.0577 41.6001C33.6783 41.6001 36.235 40.7994 38.4488 39.283L43.0103 36.1584C43.266 35.9841 43.56 35.89 43.8625 35.89C44.7382 35.89 45.452 36.6585 45.452 37.6014V50.4921L45.4537 50.4944ZM46.9685 46.3466V41.7537C47.8484 42.091 48.4833 42.988 48.4833 44.0502C48.4833 45.1124 47.8484 46.0093 46.9685 46.3466Z" fill="black"/>
<path d="M16.0347 50.3705C16.6781 49.5492 17.2001 48.6063 17.5623 47.6083C17.7157 47.1885 17.5218 46.7159 17.1319 46.5507C16.7442 46.3856 16.3032 46.5943 16.1497 47.0141C15.7705 48.058 15.1825 49.0284 14.4495 49.8176C14.1534 50.1364 14.1534 50.6526 14.4495 50.9715L15.5958 52.2058H9.09109C4.91522 52.2058 1.51461 48.5466 1.51461 44.0476C1.51461 40.6615 3.40657 37.6766 6.33392 36.4474C6.72381 36.2822 6.91768 35.8119 6.76429 35.392C6.61089 34.9722 6.17201 34.7635 5.78422 34.9286C2.2688 36.406 0 39.9849 0 44.05C0 49.4481 4.07791 53.8391 9.09112 53.8391H17.4236C17.7304 53.8391 18.0073 53.6418 18.1224 53.3366C18.2395 53.0315 18.1756 52.6805 17.9583 52.4488L16.0323 50.3749L16.0347 50.3705Z" fill="black"/>
<path d="M5.56312 16.4422C5.70586 16.5776 5.88483 16.6418 6.06167 16.6418C6.27259 16.6418 6.48352 16.5477 6.63267 16.3619C6.90751 16.0224 6.87555 15.5062 6.56023 15.2103C4.2592 13.0492 1.51719 9.64697 1.51719 5.71013C1.51719 3.46189 3.21739 1.63116 5.30532 1.63116C7.39326 1.63116 9.09345 3.46189 9.09345 5.71013C9.09345 6.16207 9.43221 6.52683 9.85192 6.52683C10.2716 6.52683 10.6104 6.16206 10.6104 5.71013C10.6104 3.46189 12.3106 1.63116 14.3985 1.63116C16.4865 1.63116 18.1866 3.46189 18.1866 5.71013C18.1866 5.96249 18.1717 6.20566 18.1526 6.45112C18.1142 6.90077 18.421 7.29766 18.8386 7.33894C19.2668 7.38024 19.6248 7.04988 19.6631 6.60024C19.6887 6.30659 19.7036 6.01294 19.7036 5.71013C19.7036 2.56256 17.3237 0 14.4006 0C12.4746 0 10.7829 1.11264 9.85613 2.77134C8.92722 1.1127 7.23766 0 5.31166 0C2.38851 0 0.00866699 2.56256 0.00866699 5.71013C0.00866699 9.31191 1.93254 13.0214 5.57144 16.4401L5.56312 16.4422Z" fill="black"/>
<path d="M34.8479 7.34389C35.2676 7.34389 35.6063 6.97912 35.6063 6.52719V2.44822C35.6063 1.99858 35.9451 1.63153 36.3648 1.63153H46.9706C47.3882 1.63153 47.729 1.99629 47.729 2.44822V17.1307C47.729 17.5803 47.3903 17.9474 46.9706 17.9474H43.9409C43.5212 17.9474 43.1824 18.3122 43.1824 18.7641C43.1824 19.216 43.5212 19.5808 43.9409 19.5808H46.9706C48.2234 19.5808 49.2439 18.4842 49.2439 17.1329L49.2418 2.44811C49.2418 1.09914 48.2234 0.000244141 46.9684 0.000244141H36.3627C35.1099 0.000244141 34.0894 1.09685 34.0894 2.44811V6.52707C34.0894 6.97902 34.4282 7.34389 34.8479 7.34389Z" fill="black"/>
</svg>
