<svg width="48" height="51" viewBox="0 0 48 51" fill="none" xmlns="http://www.w3.org/2000/svg">
<path d="M36.8631 26.9611C37.4176 26.4027 37.4215 25.5021 36.8631 24.9416L35.7304 23.809C35.5751 23.6536 35.5436 23.4118 35.6498 23.2191C35.8052 22.9477 35.9467 22.6704 36.0824 22.3892C38.9317 25.4745 40.4969 29.4525 40.4969 33.6765C40.4969 33.9341 40.7092 34.1445 40.9648 34.1445C41.2224 34.1445 41.4328 33.9321 41.4328 33.6765C41.4328 29.0751 39.6769 24.7512 36.4855 21.4534C36.6625 21.0051 36.8178 20.5528 36.9437 20.0888C36.9987 19.8764 37.1954 19.7269 37.4176 19.7269H38.9985C39.7831 19.7269 40.428 19.0879 40.428 18.2974V14.7795C40.428 13.9949 39.789 13.3499 38.9985 13.3499H37.4176C37.1954 13.3499 37.0046 13.2044 36.9437 12.992C36.6409 11.885 36.2043 10.8172 35.6301 9.82021C35.52 9.62947 35.5554 9.38761 35.7108 9.23028L36.8434 8.09763C37.4018 7.53916 37.4018 6.63264 36.8434 6.07814L34.356 3.59064C34.0826 3.32321 33.7267 3.1718 33.3433 3.1718C32.9599 3.1718 32.6039 3.32321 32.3306 3.58867L31.198 4.72132C31.0427 4.87667 30.8008 4.90813 30.6081 4.79605C29.617 4.22776 28.5552 3.78336 27.4521 3.48248C27.2398 3.42741 27.0942 3.23078 27.0942 3.00857L27.0962 1.42956C27.0962 0.644956 26.4572 0 25.6667 0H22.1528C21.3682 0 20.7233 0.639066 20.7233 1.42956V3.00072C20.7233 3.22292 20.5719 3.41366 20.3615 3.47462C19.2584 3.77155 18.1926 4.21004 17.1996 4.77244C17.0089 4.87862 16.767 4.84716 16.6117 4.69181L15.4889 3.56898C14.9304 3.01051 14.0239 3.01051 13.4694 3.56898L10.982 6.05648C10.4236 6.61495 10.4236 7.52147 10.982 8.07597L12.0851 9.17912C12.2405 9.33446 12.2719 9.57633 12.1599 9.76905C11.5758 10.7817 11.1236 11.8633 10.8207 12.99C10.7657 13.2024 10.5691 13.3479 10.3469 13.3479H8.76592C7.98134 13.3479 7.33641 13.987 7.33641 14.7774V18.2954C7.33641 19.08 7.97545 19.7249 8.76592 19.7249H10.3469C10.5691 19.7249 10.7598 19.8704 10.8207 20.0828C10.9407 20.5252 11.0921 20.9638 11.2592 21.3924C8.03244 24.694 6.25488 29.0436 6.25488 33.6709C6.25488 33.9285 6.46725 34.1389 6.72288 34.1389C6.98047 34.1389 7.19087 33.9265 7.19087 33.6709C7.19087 29.4215 8.7718 25.4196 11.6565 22.3288C11.8079 22.6454 11.9632 22.958 12.1402 23.2648C12.2503 23.4555 12.2149 23.6974 12.0596 23.8547L10.9564 24.9579C10.6851 25.2292 10.5396 25.5871 10.5396 25.9706C10.5396 26.354 10.6851 26.71 10.9564 26.9833L13.4439 29.4708C13.7152 29.7421 14.0731 29.8876 14.4565 29.8876C14.84 29.8876 15.1959 29.7362 15.4692 29.4708L16.5723 28.3637C16.7276 28.2083 16.9695 28.1769 17.1622 28.2831C18.169 28.8612 19.2465 29.3056 20.3634 29.6064C20.5758 29.6615 20.7253 29.8581 20.7253 30.0803V31.6554C20.7253 32.44 21.3643 33.085 22.1548 33.085H23.3778V34.9727C23.3778 35.2303 23.5902 35.4408 23.8458 35.4408C24.1034 35.4408 24.3138 35.2284 24.3138 34.9727V33.085H25.6686C26.4532 33.085 27.0982 32.4459 27.0982 31.6554V30.0646C27.0982 29.8424 27.2437 29.6516 27.456 29.5907C28.569 29.2879 29.6466 28.8415 30.6474 28.2575C30.8381 28.1474 31.08 28.1769 31.2373 28.3322L32.3502 29.4452C32.6216 29.7165 32.9795 29.862 33.3629 29.862C33.7463 29.862 34.1023 29.7106 34.3756 29.4452L36.8631 26.9611ZM33.363 28.9295C33.2312 28.9295 33.1054 28.8784 33.0149 28.784L31.902 27.671C31.4438 27.2129 30.7399 27.1224 30.1794 27.4449C29.2474 27.9837 28.2465 28.4006 27.2142 28.6837C26.5948 28.8489 26.1622 29.4191 26.1622 30.0583V31.6491C26.1622 31.9205 25.94 32.1368 25.6746 32.1368H22.1528C21.8815 32.1368 21.6652 31.9146 21.6652 31.6491V30.074C21.6652 29.4291 21.2326 28.8667 20.6073 28.6956C19.571 28.4183 18.5682 28.0014 17.6322 27.4666C17.41 27.3407 17.1681 27.2797 16.9223 27.2797C16.5546 27.2797 16.1869 27.4213 15.9096 27.6966L14.8065 28.8037C14.7161 28.8942 14.5902 28.9492 14.4585 28.9492C14.3267 28.9492 14.2009 28.8981 14.1104 28.8037L11.623 26.3162C11.5325 26.2257 11.4775 26.0999 11.4775 25.9681C11.4775 25.8364 11.5286 25.7105 11.623 25.6201L12.7261 24.5169C13.1784 24.0647 13.2747 23.3548 12.9522 22.7943C12.4194 21.8623 12.0064 20.8712 11.7233 19.8349C11.5581 19.2155 10.9879 18.7829 10.3488 18.7829H8.76785C8.49649 18.7829 8.27429 18.5607 8.27429 18.2952V14.7773C8.27429 14.506 8.49649 14.2897 8.76785 14.2897H10.3488C10.9937 14.2897 11.5561 13.857 11.7233 13.2377C12.0045 12.1915 12.4272 11.1847 12.9719 10.2428C13.2944 9.68436 13.2039 8.97451 12.7458 8.52024L11.6427 7.41709C11.4519 7.22635 11.4519 6.91369 11.6427 6.72296L14.1301 4.23546C14.3208 4.04471 14.6335 4.04471 14.8242 4.23546L15.947 5.35829C16.3993 5.81056 17.1052 5.90689 17.6637 5.59033C18.5898 5.06135 19.5769 4.6543 20.6033 4.38297C21.2227 4.2178 21.6612 3.64756 21.6612 3.00451L21.6652 1.42942C21.6652 1.15806 21.8874 0.941756 22.1528 0.941756H25.6706C25.942 0.941756 26.1583 1.16396 26.1583 1.42942V3.01433C26.1583 3.65339 26.5909 4.22168 27.2103 4.38886C28.2328 4.66612 29.2179 5.07907 30.1441 5.60805C30.7025 5.93053 31.4084 5.83418 31.8666 5.38191L32.9992 4.24926C33.0897 4.1588 33.2155 4.10375 33.3473 4.10375C33.479 4.10375 33.6048 4.15487 33.6953 4.24926L36.1827 6.73676C36.3735 6.9275 36.3735 7.24016 36.1827 7.4309L35.0501 8.56355C34.5978 9.01582 34.5015 9.72177 34.824 10.2802C35.3569 11.2123 35.7698 12.2034 36.0471 13.2358C36.2122 13.8552 36.7825 14.2878 37.4216 14.2878H39.0025C39.2738 14.2878 39.496 14.51 39.496 14.7754V18.2933C39.496 18.5647 39.2738 18.781 39.0025 18.781H37.4216C36.7766 18.781 36.2142 19.2136 36.0471 19.833C35.7698 20.8496 35.3667 21.8269 34.8437 22.7472C34.5271 23.3057 34.6215 24.0116 35.0757 24.458L36.2083 25.5906C36.399 25.7814 36.399 26.094 36.2083 26.2848L33.7209 28.7723C33.6206 28.8804 33.4947 28.9295 33.363 28.9295Z" fill="black"/>
<path d="M23.8241 9.67877C20.0644 9.67877 17.0027 12.7385 17.0027 16.5003C17.0027 20.2601 20.0623 23.3219 23.8241 23.3219C27.5837 23.3219 30.6454 20.2622 30.6454 16.5003C30.6454 12.7347 27.5858 9.67877 23.8241 9.67877ZM23.8241 22.3796C20.5816 22.3796 17.939 19.7426 17.939 16.4943C17.939 13.2478 20.5759 10.6091 23.8241 10.6091C27.0705 10.6091 29.7091 13.246 29.7091 16.4943C29.7091 19.7408 27.0703 22.3796 23.8241 22.3796Z" fill="black"/>
<path d="M13.3695 39.5228V39.5169C13.3695 39.3301 13.2594 39.1649 13.0883 39.0882L6.87654 36.351C6.7566 36.2959 6.61895 36.2959 6.499 36.351L0.281186 39.0902C0.110116 39.1649 0 39.3321 0 39.5189V46.7119C0 46.8988 0.110116 47.0639 0.281186 47.1406L6.499 49.8798C6.55996 49.9054 6.62485 49.9192 6.68974 49.9192C6.75463 49.9192 6.82149 49.9034 6.88048 49.8798L13.0983 47.1406C13.2694 47.0659 13.3795 46.8988 13.3795 46.7119V39.755C13.3893 39.6842 13.3892 39.6034 13.3695 39.5228ZM6.68404 37.2929L11.883 39.5838L6.71324 41.8648L1.51427 39.568L6.68404 37.2929ZM0.940415 40.3389L6.2159 42.6651V48.7256L0.940415 46.4052V40.3389ZM7.15823 48.7295V42.6887L12.4337 40.3625V46.4033L7.15823 48.7295Z" fill="black"/>
<path d="M30.5818 39.9462V39.9403C30.5818 39.7535 30.4717 39.5883 30.3007 39.5116L24.0828 36.7724C23.9629 36.7174 23.8252 36.7174 23.7053 36.7724L17.4875 39.5116C17.3164 39.5864 17.2063 39.7535 17.2063 39.9403V47.1334C17.2063 47.3202 17.3164 47.4854 17.4875 47.5621L23.7053 50.3013C23.7663 50.3268 23.8311 50.3406 23.896 50.3406C23.9609 50.3406 24.0278 50.3249 24.0868 50.3013L30.3046 47.5621C30.4757 47.4873 30.5858 47.3202 30.5858 47.1334L30.5877 40.1784C30.6015 40.1037 30.6015 40.0229 30.5818 39.9462ZM23.9019 37.7124L29.1009 40.0032L23.9276 42.2823L18.7286 39.9914L23.9019 37.7124ZM18.1522 40.7623L23.4277 43.0885V49.149L18.1522 46.8227V40.7623ZM24.3701 49.1489V43.1121L29.6455 40.7859V46.8267L24.3701 49.1489Z" fill="black"/>
<path d="M47.6063 39.173V39.1671C47.6063 38.9803 47.4961 38.8151 47.3251 38.7384L41.1073 35.9992C40.9873 35.9441 40.8497 35.9441 40.7297 35.9992L34.5119 38.7384C34.3408 38.8131 34.2307 38.9803 34.2307 39.1671V46.3601C34.2307 46.5469 34.3408 46.7121 34.5119 46.7888L40.7297 49.528C40.7907 49.5536 40.8556 49.5673 40.9205 49.5673C40.9853 49.5673 41.0522 49.5516 41.1112 49.528L47.329 46.7888C47.5001 46.7141 47.6102 46.5469 47.6102 46.3601L47.6122 39.4052C47.6259 39.3285 47.6259 39.2536 47.6063 39.173ZM40.9208 36.943L46.1198 39.2339L40.95 41.5149L35.751 39.2241L40.9208 36.943ZM35.1772 39.989L40.4526 42.3153V48.3757L35.1772 46.0495V39.989ZM41.395 48.3757V42.3389L46.6705 40.0126V46.0534L41.395 48.3757Z" fill="black"/>
</svg>
