<svg width="50" height="50" viewBox="0 0 50 50" fill="none" xmlns="http://www.w3.org/2000/svg">
<path d="M34.7252 16.879C34.7252 15.9953 34.1699 15.2037 33.3429 14.9083L31.7347 14.3345C30.1649 13.7753 29.1096 12.2719 29.1096 10.5942C29.1096 8.87534 30.3139 7.43483 31.915 7.07897V6.37932C31.915 5.86124 32.3333 5.44001 32.8477 5.44001C33.3621 5.44001 33.7804 5.86126 33.7804 6.37932V7.07897C35.3839 7.43484 36.5882 8.87286 36.5882 10.5942C36.5882 11.1123 36.1699 11.5335 35.6555 11.5335C35.1411 11.5335 34.7228 11.1122 34.7228 10.5942C34.7228 9.6452 33.9559 8.87292 33.0136 8.87292H32.6843C31.7419 8.87292 30.9751 9.6452 30.9751 10.5942C30.9751 11.4778 31.5304 12.2695 32.3574 12.5624L33.9656 13.1362C35.5354 13.6954 36.5907 15.1988 36.5907 16.8765C36.5907 18.5954 35.3863 20.0359 33.7829 20.3918V21.0914C33.7829 21.6095 33.3646 22.0307 32.8502 22.0307C32.3357 22.0307 31.9175 21.6095 31.9175 21.0914V20.3918C30.314 20.0359 29.1121 18.5979 29.1121 16.8765C29.1121 16.3585 29.5303 15.9372 30.0448 15.9372C30.5592 15.9372 30.9775 16.3585 30.9775 16.8765C30.9775 17.8255 31.7443 18.5978 32.6867 18.5978H33.016C33.9583 18.5978 34.7252 17.8255 34.7252 16.8765V16.879ZM47.9995 41.3402L32.9725 47.8527C31.5542 48.4143 30.0589 48.6952 28.5636 48.6952C27.9891 48.6952 27.4146 48.654 26.8424 48.5693L12.9766 46.526V49.0607C12.9766 49.5788 12.5583 50 12.0439 50H0.932714C0.418269 50 0 49.5788 0 49.0607V27.8748C0 27.3568 0.418287 26.9355 0.932714 26.9355H12.0415C12.5559 26.9355 12.9742 27.3568 12.9742 27.8748V30.3055H20.2532C22.0947 30.3055 23.7726 31.2448 24.739 32.816C25.09 33.3873 25.5587 33.857 26.0924 34.1766C26.6333 34.5034 27.2463 34.6753 27.8665 34.6753H31.3186C32.309 34.6753 33.2441 35.065 33.9509 35.7695C34.3908 36.215 34.7057 36.7476 34.8812 37.3237L46.1149 35.1643C47.9346 34.8495 49.6463 36.0237 49.9492 37.7716C50.216 39.2895 49.4131 40.7566 47.9947 41.34L47.9995 41.3402ZM11.1113 45.4389V28.8145H1.86604V48.1212H11.1095V45.4388L11.1113 45.4389ZM48.1152 38.096C47.9902 37.3745 47.2234 36.8783 46.4493 37.0138L34.8458 39.2435C34.4732 40.9212 32.9852 42.1801 31.2086 42.1801H19.2032C18.6888 42.1801 18.2705 41.7589 18.2705 41.2408C18.2705 40.7228 18.6888 40.3015 19.2032 40.3015H31.2086C32.2351 40.3015 33.0716 39.459 33.0716 38.4253C33.0716 38.2946 33.0981 38.1687 33.1462 38.0549C33.074 37.6966 32.8986 37.3649 32.6365 37.0962C32.2856 36.7476 31.8168 36.5515 31.3216 36.5515H27.8695C26.9103 36.5515 25.9656 36.2876 25.141 35.7889C24.3526 35.3192 23.665 34.6317 23.1554 33.8062C22.5303 32.7894 21.4486 32.1841 20.2562 32.1841H12.9772V44.6276L27.1125 46.7121C28.8481 46.9663 30.6294 46.7605 32.2641 46.1165L47.2721 39.6115C47.2769 39.6091 47.2841 39.6067 47.2913 39.6043C47.8899 39.3598 48.2313 38.74 48.1183 38.0984L48.1152 38.096ZM18.6667 14.2836C18.6667 6.40583 25.03 0 32.85 0C40.6725 0 47.0358 6.40831 47.0358 14.2836C47.0358 22.1614 40.6725 28.5697 32.85 28.5697C25.03 28.5697 18.6667 22.1614 18.6667 14.2836ZM20.5321 14.2836C20.5321 21.1251 26.0588 26.6887 32.8502 26.6887C39.6437 26.6887 45.1682 21.1229 45.1682 14.2836C45.1682 7.44207 39.6415 1.87849 32.8502 1.87849C26.0588 1.87849 20.5321 7.44424 20.5321 14.2836Z" fill="#88BF85"/>
</svg>
