<svg width="50" height="37" viewBox="0 0 50 37" fill="none" xmlns="http://www.w3.org/2000/svg">
<path d="M42.7759 27.5467C42.3611 27.5467 42.0228 27.882 42.0228 28.2997C42.014 29.7941 40.8049 31.0031 39.3105 31.0091H34.792L36.2982 29.5029C36.5894 29.2058 36.5894 28.7322 36.2982 28.4351C36.157 28.2909 35.9658 28.2115 35.7658 28.2115C35.5628 28.2115 35.3716 28.2909 35.2304 28.4351L32.3681 31.2974C32.0827 31.5886 32.0827 32.0593 32.3681 32.3505L35.2304 35.2128C35.3716 35.351 35.5598 35.4275 35.7569 35.4246C35.9599 35.4275 36.1541 35.354 36.2982 35.2128C36.5894 34.9157 36.5894 34.4421 36.2982 34.142L34.7155 32.6358H39.2369C41.5609 32.6299 43.4465 30.7443 43.4524 28.4203C43.4877 28.2115 43.4348 27.9996 43.3054 27.8349C43.1759 27.6702 42.9847 27.5643 42.7759 27.5467Z" fill="black"/>
<path d="M4.33933 6.14268H8.8578L7.35164 7.64884C7.2075 7.79004 7.12807 7.98419 7.12807 8.18423C7.12807 8.38426 7.2075 8.57842 7.35164 8.71962C7.4899 8.86377 7.67817 8.9432 7.87821 8.94613C8.08119 8.94319 8.27534 8.86376 8.41948 8.71962L11.1465 5.97797C11.2877 5.83677 11.37 5.64262 11.37 5.44258C11.37 5.24254 11.2877 5.05133 11.1465 4.90718L8.28415 2.05965V2.06259C7.98704 1.7743 7.51346 1.7743 7.21629 2.06259C7.07214 2.20379 6.99272 2.39501 6.99272 2.59798C6.99272 2.79801 7.07214 2.98923 7.21629 3.13043L8.72245 4.63658H4.20398C3.08318 4.63364 2.0065 5.07784 1.21517 5.87502C0.426773 6.66929 -0.0115178 7.7489 0.000230229 8.86971C0.000230229 9.0668 0.0796578 9.25801 0.22086 9.39627C0.365006 9.53453 0.556212 9.61102 0.753307 9.60808C0.95334 9.60808 1.14455 9.52865 1.28576 9.38745C1.42696 9.24625 1.50638 9.05503 1.50638 8.855C1.50344 8.13723 1.78584 7.44885 2.29185 6.93992C2.79782 6.43101 3.48615 6.14272 4.20398 6.14272L4.33933 6.14268Z" fill="black"/>
<path d="M42.3406 8.19265C41.9699 6.31583 41.108 4.57434 39.8401 3.1447C38.1545 1.15025 35.6747 0 33.0624 0C30.4502 0 27.9704 1.15018 26.2847 3.1447C25.6405 3.8713 25.1081 4.68911 24.7021 5.57164C21.8545 4.3744 18.5598 5.14804 16.5387 7.48378C14.6972 9.61062 13.9529 12.47 14.5207 15.2262L6.62844 18.0267H3.61613C2.70717 18.0355 1.97465 18.7739 1.97465 19.6829V25.2721C1.97171 25.7105 2.14233 26.1311 2.4512 26.443C2.75714 26.7518 3.1778 26.9283 3.61614 26.9283H6.62845V36.5685H8.55527C10.1497 36.5655 11.5058 35.4124 11.7647 33.8415L12.5177 28.57L21.1488 30.9792C21.3635 31.038 21.5871 31.0675 21.8106 31.0704C22.9961 31.1204 24.0052 30.2085 24.0699 29.0229V21.854L44.4941 21.8511C45.9267 21.6569 47.2416 20.9509 48.1977 19.8654C50.6011 17.0473 50.6011 12.9053 48.1977 10.0905C46.7416 8.43139 44.4909 7.70135 42.3406 8.19265ZM3.61583 25.4223C3.53935 25.4223 3.47168 25.3635 3.4658 25.287V19.6977C3.4658 19.6124 3.53052 19.5418 3.61583 19.533H6.50749V25.4076L3.61583 25.4223ZM10.1818 33.615C10.0759 34.4799 9.33749 35.1271 8.46678 35.1212H8.13436V27.3931L11.1467 28.205L10.1818 33.615ZM22.231 29.3819C22.078 29.5172 21.878 29.5908 21.675 29.5937H21.4338L8.13445 25.8136V19.0948L21.4782 14.4115C21.5782 14.3909 21.6812 14.3909 21.7812 14.4115C22.1136 14.4115 22.4902 14.638 22.4902 14.9675V29.0787L22.4872 29.0816C22.4696 29.1993 22.4108 29.3052 22.3225 29.3817L22.231 29.3819ZM46.9764 18.8388C46.288 19.639 45.3378 20.1743 44.2965 20.345H23.9927V14.9087C23.9604 14.3321 23.6956 13.7967 23.2632 13.4143C22.8308 13.0318 22.266 12.8377 21.6894 12.8759C21.407 12.873 21.1246 12.9259 20.8598 13.026L15.906 14.7586C15.5059 12.5289 16.1325 10.2402 17.6063 8.52226C18.6977 7.26906 20.2686 6.53956 21.9306 6.51892C22.8955 6.52481 23.8428 6.77191 24.687 7.24259C24.8753 7.35437 25.1018 7.37791 25.3107 7.30436C25.5166 7.23082 25.6784 7.07197 25.7549 6.86605C26.1402 5.87176 26.6962 4.95391 27.3964 4.15376C28.7996 2.49466 30.8647 1.53562 33.0386 1.53562C35.2125 1.53562 37.2776 2.49458 38.6778 4.15376C39.934 5.59229 40.7223 7.37784 40.9371 9.27529C40.9724 9.51063 41.1106 9.71655 41.3136 9.83422C41.5254 9.9313 41.7666 9.9313 41.9784 9.83422C43.7435 9.09585 45.7821 9.58123 47.0234 11.0374C48.9915 13.2584 49.012 16.5972 47.0676 18.8385L46.9764 18.8388Z" fill="black"/>
</svg>
