<svg width="53" height="53" viewBox="0 0 53 53" fill="none" xmlns="http://www.w3.org/2000/svg">
<path d="M26.5001 25.3778C32.471 25.3778 37.3278 20.5208 37.3278 14.5498C37.3278 8.57872 32.4709 3.72186 26.5001 3.72186C20.5292 3.72186 15.6723 8.57886 15.6723 14.5498C15.6723 20.5209 20.5292 25.3778 26.5001 25.3778ZM26.5001 4.80181C31.874 4.80181 36.2472 9.17548 36.2472 14.5492C36.2472 19.9228 31.8736 24.2965 26.5001 24.2965C21.1265 24.2965 16.7529 19.9228 16.7529 14.5492C16.7529 9.17548 21.1265 4.80181 26.5001 4.80181ZM26.5001 42.2857C22.2764 42.2857 18.8413 45.7211 18.8413 49.9446V51.1182C18.8413 52.1573 19.6865 53 20.7231 53H32.2774C33.3165 53 34.1592 52.1548 34.1592 51.1182V49.9446C34.1592 45.7235 30.7236 42.2857 26.5001 42.2857ZM33.0785 51.1186C33.0785 51.5606 32.7192 51.9198 32.2772 51.9198H20.7229C20.2809 51.9198 19.9216 51.5606 19.9216 51.1186V49.945C19.9216 46.3184 22.8735 43.3665 26.5001 43.3665C30.1266 43.3665 33.0785 46.3184 33.0785 49.945V51.1186ZM45.3408 42.2857C41.1172 42.2857 37.6821 45.7211 37.6821 49.9446V51.1182C37.6821 52.1573 38.5273 53 39.5639 53H51.1182C52.1573 53 53 52.1548 53 51.1182V49.9446C53 45.7235 49.5643 42.2857 45.3408 42.2857ZM51.9193 51.1186C51.9193 51.5606 51.56 51.9198 51.118 51.9198H39.5663C39.1243 51.9198 38.7651 51.5606 38.7651 51.1186V49.945C38.7651 46.3184 41.7169 43.3665 45.3435 43.3665C48.9701 43.3665 51.9219 46.3184 51.9219 49.945L51.9193 51.1186ZM7.65876 42.2857C3.43513 42.2857 0 45.7211 0 49.9446V51.1182C0 52.1573 0.845216 53 1.8818 53H13.4361C14.4752 53 15.3179 52.1548 15.3179 51.1182V49.9446C15.3179 45.7235 11.8797 42.2857 7.65876 42.2857ZM14.2346 51.1186C14.2346 51.5606 13.8753 51.9198 13.4333 51.9198H1.88167C1.43966 51.9198 1.08039 51.5606 1.08039 51.1186V49.945C1.08039 46.3184 4.03226 43.3665 7.65882 43.3665C11.2854 43.3665 14.2373 46.3184 14.2373 49.945L14.2346 51.1186ZM7.65876 41.7458C9.83522 41.7458 11.6058 39.9751 11.6058 37.7986C11.6058 36.7569 11.1974 35.8109 10.5357 35.1052L17.7656 26.185C20.0636 27.9143 22.8914 28.9767 25.9571 29.0904V33.8932C24.0365 34.1594 22.5503 35.806 22.5503 37.7989C22.5503 39.9754 24.3209 41.746 26.4973 41.746C28.6738 41.746 30.4443 39.9754 30.4443 37.7989C30.4443 35.806 28.958 34.1568 27.0375 33.8932V29.0904C30.1031 28.9767 32.9284 27.9143 35.229 26.185L42.4589 35.1052C41.7972 35.8109 41.3888 36.7569 41.3888 37.7986C41.3888 39.9752 43.1594 41.7458 45.3358 41.7458C47.5123 41.7458 49.2829 39.9751 49.2829 37.7986C49.2829 35.6221 47.5122 33.8515 45.3358 33.8515C44.5888 33.8515 43.8935 34.0635 43.2964 34.4254L36.0691 25.4973C39.1192 22.827 41.05 18.911 41.05 14.5502C41.05 6.52668 34.5233 0 26.5001 0C18.477 0 11.9502 6.52688 11.9502 14.5502C11.9502 18.9109 13.8811 22.8298 16.9312 25.4973L9.69593 34.4227C9.09883 34.0608 8.40352 33.8489 7.65651 33.8489C5.48004 33.8489 3.70948 35.6196 3.70948 37.796C3.70948 39.9725 5.47971 41.7458 7.65876 41.7458ZM48.207 37.796C48.207 39.3754 46.9224 40.6626 45.3405 40.6626C43.7611 40.6626 42.4739 39.3779 42.4739 37.796C42.4739 36.2166 43.7585 34.9294 45.3405 34.9294C46.9224 34.9294 48.207 36.2166 48.207 37.796ZM29.3658 37.796C29.3658 39.3754 28.0812 40.6626 26.4993 40.6626C24.9199 40.6626 23.6327 39.3779 23.6327 37.796C23.6327 36.2166 24.9174 34.9294 26.4993 34.9294C28.0786 34.9294 29.3658 36.2166 29.3658 37.796ZM13.0293 14.5499C13.0293 7.12331 19.0726 1.08035 26.4986 1.08035C33.9246 1.08035 39.9679 7.12384 39.9679 14.5499C39.9679 21.9761 33.9246 28.0195 26.4986 28.0195C19.0726 28.0195 13.0293 21.9761 13.0293 14.5499ZM7.65796 34.9294C9.23729 34.9294 10.5245 36.2141 10.5245 37.796C10.5245 39.3754 9.23987 40.6626 7.65796 40.6626C6.07863 40.6626 4.79139 39.3779 4.79139 37.796C4.79139 36.2166 6.07605 34.9294 7.65796 34.9294ZM23.436 12.0274C23.436 10.523 24.5268 9.26673 25.9588 9.01084V7.76234C25.9588 7.4625 26.2018 7.2221 26.4991 7.2221C26.7989 7.2221 27.0393 7.46508 27.0393 7.76234V9.01084C27.9828 9.17886 28.7996 9.77593 29.239 10.6574C29.3734 10.9237 29.2649 11.2494 28.9986 11.3838C28.7324 11.5183 28.4067 11.4097 28.2722 11.1434C27.9336 10.4662 27.2538 10.0475 26.499 10.0475C25.4057 10.0475 24.5165 10.9367 24.5165 12.0301C24.5165 13.2114 25.6383 13.8395 26.5998 14.0204C28.4015 14.3591 29.5647 15.5584 29.5647 17.0758C29.5647 18.5802 28.4739 19.8365 27.0418 20.0924V21.3409C27.0418 21.6407 26.7989 21.8811 26.5016 21.8811C26.2018 21.8811 25.9614 21.6381 25.9614 21.3409V20.095C25.0179 19.9269 24.2011 19.3299 23.7617 18.4484C23.6273 18.1821 23.7358 17.8564 24.0021 17.722C24.2683 17.5876 24.594 17.6961 24.7284 17.9624C25.0671 18.6396 25.7469 19.0583 26.5017 19.0583C27.595 19.0583 28.4842 18.1691 28.4842 17.0757C28.4842 15.8944 27.3624 15.2663 26.4009 15.0828C24.5992 14.7416 23.436 13.5422 23.436 12.0274Z" fill="#E37728"/>
</svg>
