<svg width="50" height="50" viewBox="0 0 50 50" fill="none" xmlns="http://www.w3.org/2000/svg">
<path d="M49.9996 31.0818V3.80562C49.9996 1.70468 48.2927 0 46.194 0H3.80562C1.70468 0 0 1.70687 0 3.80562V31.0818C0 33.1828 1.70687 34.8875 3.80562 34.8875H19.9762C19.0529 37.3059 17.7288 39.4451 15.3532 39.4451C13.0833 39.4451 11.2346 41.2916 11.2346 43.5637C11.2346 44.1042 11.6692 44.541 12.2119 44.541H31.7576C33.3114 47.7589 36.5991 49.9814 40.4047 49.9814C45.692 49.9814 50 45.6759 50 40.3861C50 38.15 49.2299 36.0851 47.9351 34.4571C49.1578 33.8289 49.9996 32.5523 49.9996 31.0818ZM13.4232 42.5864C13.7812 41.8861 14.5108 41.4042 15.3462 41.4042C19.5054 41.4042 21.2458 37.2631 22.0633 34.8872H27.9404C28.5529 36.6279 29.4288 38.569 30.8295 39.875C30.8182 40.0462 30.8182 40.2173 30.8182 40.3929C30.8182 41.1451 30.906 41.8814 31.0772 42.5862L13.4232 42.5864ZM31.2868 37.4162C30.7689 36.6573 30.3636 35.7633 30.0213 34.8874H32.5568C32.0164 35.6575 31.5818 36.5042 31.2868 37.4162ZM48.0402 40.3931C48.0402 44.6041 44.6174 48.0291 40.4043 48.0291C36.1933 48.0291 32.7684 44.6063 32.7684 40.3931C32.7706 36.18 36.1934 32.7572 40.4043 32.7572C44.6174 32.7572 48.0402 36.18 48.0402 40.3931ZM48.0402 31.082C48.0402 32.03 47.3173 32.8047 46.3986 32.906C44.757 31.5887 42.6695 30.7938 40.4044 30.7938C38.1278 30.7938 36.0336 31.5932 34.3873 32.924H28.6405L21.358 32.9217H3.8051C2.78729 32.9217 1.95861 32.0931 1.95861 31.0753V3.80539C1.95861 2.78757 2.78729 1.9589 3.8051 1.9589H46.1935C47.2113 1.9589 48.0399 2.78757 48.0399 3.80539L48.0402 31.082Z" fill="#3E5BC3"/>
<path d="M46.0762 2.94092H3.92187C3.38143 2.94092 2.94458 3.37552 2.94458 3.91821V29.2759C2.94458 29.8164 3.37919 30.2532 3.92187 30.2532H46.0808C46.6212 30.2532 47.0581 29.8186 47.0581 29.2759V3.92282C47.0581 3.38238 46.6166 2.94092 46.0762 2.94092ZM45.0989 28.2986H4.89939V4.89976H45.0989V28.2986Z" fill="#3E5BC3"/>
<path d="M27.7579 30.6161H22.2341C21.6937 30.6161 21.2568 31.0507 21.2568 31.5934C21.2568 32.1338 21.6914 32.5707 22.2341 32.5707H27.7579C28.2983 32.5707 28.7351 32.1361 28.7351 31.5934C28.7396 31.0529 28.2983 30.6161 27.7579 30.6161Z" fill="#3E5BC3"/>
<path d="M25.0068 22.9529C29.1705 22.9529 33.0595 20.7056 35.1602 17.0937C35.3358 16.7875 35.3358 16.4181 35.1602 16.1119C33.0592 12.5 29.166 10.2527 25.0068 10.2527C20.8364 10.2527 16.9432 12.5 14.8419 16.1119C14.6663 16.4182 14.6663 16.7875 14.8419 17.0937C16.9406 20.7056 20.8361 22.9529 25.0068 22.9529ZM28.1707 12.7408C30.1883 13.4343 31.9582 14.781 33.1652 16.6004C31.9582 18.4176 30.1883 19.7643 28.1707 20.4601C29.2831 19.5413 29.9947 18.1542 29.9947 16.6004C29.9879 15.0467 29.2831 13.6573 28.1707 12.7408ZM25.0068 13.5582C26.6777 13.5582 28.0355 14.9228 28.0355 16.6004C28.0355 18.2758 26.6777 19.6426 25.0068 19.6426C23.3315 19.6426 21.9646 18.278 21.9646 16.6004C21.9646 14.9228 23.3292 13.5582 25.0068 13.5582ZM21.8362 12.7408C20.7238 13.6596 20.0122 15.0467 20.0122 16.6004C20.0122 18.1542 20.7238 19.5413 21.8362 20.4601C19.8186 19.7665 18.0419 18.4199 16.8417 16.6004C18.0419 14.781 19.8118 13.4411 21.8362 12.7408Z" fill="#3E5BC3"/>
<path d="M25.0063 9.78645C25.5468 9.78645 25.9836 9.35184 25.9836 8.80916V6.60912C25.9836 6.06868 25.549 5.63184 25.0063 5.63184C24.4659 5.63184 24.0291 6.06644 24.0291 6.60912V8.80916C24.0291 9.3451 24.4637 9.78645 25.0063 9.78645Z" fill="#3E5BC3"/>
<path d="M25.0063 23.4102C24.4659 23.4102 24.0291 23.8448 24.0291 24.3874V26.5875C24.0291 27.1279 24.4637 27.5648 25.0063 27.5648C25.5468 27.5648 25.9836 27.1302 25.9836 26.5875V24.3874C25.9814 23.8515 25.5468 23.4102 25.0063 23.4102Z" fill="#3E5BC3"/>
<path d="M31.2242 11.3468C31.4764 11.3468 31.7241 11.2522 31.9178 11.0585L33.6765 9.29984C34.0593 8.91703 34.0593 8.30001 33.6765 7.91723C33.2936 7.53442 32.6766 7.53442 32.2938 7.91723L30.5352 9.67593C30.1523 10.0587 30.1523 10.6758 30.5352 11.0585C30.7243 11.2522 30.9698 11.3468 31.2242 11.3468Z" fill="#3E5BC3"/>
<path d="M18.0821 11.0633C18.2712 11.2524 18.5234 11.3515 18.7756 11.3515C19.0278 11.3515 19.2755 11.257 19.4692 11.0633C19.852 10.6805 19.852 10.0635 19.4692 9.68069L17.7105 7.922C17.3277 7.53919 16.7107 7.53919 16.3279 7.922C15.9451 8.30481 15.9451 8.92182 16.3279 9.3046L18.0821 11.0633Z" fill="#3E5BC3"/>
<path d="M31.9178 22.1333C31.5349 21.7505 30.9179 21.7505 30.5352 22.1333C30.1523 22.5161 30.1523 23.1331 30.5352 23.5159L32.2938 25.2746C32.483 25.4637 32.7352 25.5628 32.9874 25.5628C33.2396 25.5628 33.4873 25.4683 33.6809 25.2746C34.0638 24.8918 34.0638 24.2748 33.6809 23.892L31.9178 22.1333Z" fill="#3E5BC3"/>
<path d="M18.0827 22.1333L16.324 23.892C15.9412 24.2748 15.9412 24.8918 16.324 25.2746C16.5131 25.4638 16.7653 25.5629 17.0175 25.5629C17.2697 25.5629 17.5174 25.4683 17.7111 25.2746L19.4698 23.5159C19.8526 23.1331 19.8526 22.5161 19.4698 22.1333C19.0892 21.7528 18.4654 21.7528 18.0827 22.1333Z" fill="#3E5BC3"/>
<path d="M41.364 39.711C41.1411 39.6344 40.9046 39.5646 40.6592 39.4926C40.112 39.3327 39.5468 39.1683 39.2721 38.9094C38.8014 38.4567 38.8712 37.8848 39.1595 37.5223C39.477 37.1102 40.2538 36.9346 40.9542 37.1057C41.2897 37.189 41.8662 37.4164 41.9788 38.0245C42.0778 38.5536 42.5913 38.9071 43.1205 38.8126C43.6496 38.7135 44.0031 38.2068 43.9086 37.6709C43.6857 36.4594 42.7624 35.5362 41.4316 35.2119C41.4203 35.2052 41.4023 35.2052 41.391 35.2052V34.4351C41.391 33.8946 40.9564 33.4578 40.4137 33.4578C39.8733 33.4578 39.4365 33.8924 39.4365 34.4351V35.212C38.7069 35.3944 38.0606 35.7704 37.6305 36.3244C36.6712 37.5606 36.7951 39.2427 37.9412 40.3371C38.565 40.9248 39.4004 41.1658 40.13 41.3842C40.335 41.4428 40.5421 41.5013 40.7291 41.5734C42.1815 42.0845 42.0284 42.7375 41.9585 43.0506C41.8415 43.528 41.1231 43.7689 40.4994 43.7509C39.8238 43.7329 38.9749 43.4266 38.8241 42.6092C38.725 42.08 38.2116 41.7332 37.6824 41.8323C37.1532 41.9313 36.7997 42.4448 36.9054 42.974C37.1464 44.2553 38.1237 45.2145 39.4455 45.5613V46.3562C39.4455 46.8967 39.8801 47.3335 40.4228 47.3335C40.9632 47.3335 41.4001 46.8989 41.4001 46.3562V45.6266C42.6521 45.3857 43.5934 44.6021 43.8658 43.5032C44.0347 42.6812 44.1765 40.704 41.364 39.711Z" fill="#3E5BC3"/>
</svg>
