<?xml version="1.0" encoding="UTF-8"?>
<svg version="1.1" xmlns="http://www.w3.org/2000/svg" width="1280" height="587">
<path d="M0 0 C0.82371094 0.71285156 1.64742188 1.42570312 2.49609375 2.16015625 C13.91550724 12.19198912 24.71497921 22.95363474 34 35 C35.19496094 36.50433594 35.19496094 36.50433594 36.4140625 38.0390625 C80.99916973 94.47535799 100.60218334 167.89127944 92.359375 239.15722656 C85.80282604 291.02166682 65.31135669 339.67264379 32 380 C31.53658203 380.56638184 31.07316406 381.13276367 30.59570312 381.71630859 C19.62574172 395.06760935 7.66617736 407.3919882 -6 418 C-7.08872039 418.87707127 -8.17588223 419.75607968 -9.26171875 420.63671875 C-22.93916897 431.66742056 -37.4327784 440.86425889 -53 449 C-53.84498047 449.4448877 -54.68996094 449.88977539 -55.56054688 450.34814453 C-79.92135008 463.01918315 -106.01392222 471.14300543 -133 476 C-133.96486328 476.17644043 -134.92972656 476.35288086 -135.92382812 476.53466797 C-204.39596687 488.40552501 -278.20494496 470.65696295 -335.04272461 431.31689453 C-356.45455381 416.16439591 -376.94863057 397.78292982 -393 377 C-394.16015625 375.56527344 -394.16015625 375.56527344 -395.34375 374.1015625 C-426.56256835 334.8804521 -445.06253591 286.55933476 -451 237 C-451.09571289 236.21681396 -451.19142578 235.43362793 -451.29003906 234.62670898 C-458.8067559 164.31577075 -437.70248568 92.38096504 -394 37 C-388.04153624 29.62464171 -381.76994411 22.56679264 -375.3125 15.625 C-374.70712402 14.97112305 -374.10174805 14.31724609 -373.47802734 13.64355469 C-369.22675987 9.12161589 -364.72030271 5.02490369 -360 1 C-358.98976156 0.11195395 -357.98055079 -0.77726336 -356.97265625 -1.66796875 C-314.67659705 -38.28670457 -259.86056633 -61.61989449 -204 -66 C-203.30551758 -66.05494629 -202.61103516 -66.10989258 -201.89550781 -66.16650391 C-128.67565781 -71.75442132 -55.19158575 -48.80332683 0 0 Z " fill="#A50034" transform="translate(473,87)"/>
<path d="M0 0 C1.89571067 1.79282103 3.76090462 3.61128174 5.625 5.4375 C6.39972656 6.17355469 7.17445313 6.90960938 7.97265625 7.66796875 C12.07895998 11.63611647 15.45696985 15.68545478 18.625 20.4375 C17.038656 24.56394084 14.03288206 27.0699851 10.8125 29.9375 C9.630058 31.0089487 8.44777063 32.08056807 7.265625 33.15234375 C6.66041016 33.69745605 6.05519531 34.24256836 5.43164062 34.80419922 C2.62013402 37.34595316 -0.15733852 39.92407637 -2.9375 42.5 C-12.3637355 51.20473868 -21.81897503 59.8751325 -31.375 68.4375 C-34.57153477 67.06063762 -36.32904184 65.57506103 -38.5 62.875 C-54.123709 44.60880322 -76.45891932 34.34793506 -100.375 32.4375 C-129.36373471 31.28126694 -158.69464486 32.6445513 -181.96875 52.19921875 C-202.14390606 70.96604411 -209.25890906 100.08901184 -210.48272705 126.78765869 C-210.53753886 129.12314298 -210.56519364 131.45688089 -210.578125 133.79296875 C-210.58513931 134.64929901 -210.59215363 135.50562927 -210.59938049 136.38790894 C-210.61676811 139.13366019 -210.6232317 141.87919573 -210.625 144.625 C-210.62567474 145.5630246 -210.62634949 146.50104919 -210.62704468 147.46749878 C-210.60371867 167.8725237 -209.1631722 187.06885298 -202.375 206.4375 C-202.00632812 207.51128906 -201.63765625 208.58507812 -201.2578125 209.69140625 C-194.50378264 227.55465073 -182.12404355 239.85314399 -165.125 248.125 C-149.15775918 255.02975279 -132.04817192 256.84453357 -114.8125 256.75 C-113.76926575 256.74726578 -113.76926575 256.74726578 -112.70495605 256.74447632 C-93.31819719 256.65942723 -76.48885342 253.21596335 -57.375 248.4375 C-56.88 218.2425 -56.88 218.2425 -56.375 187.4375 C-78.155 187.4375 -99.935 187.4375 -122.375 187.4375 C-122.375 165.6575 -122.375 143.8775 -122.375 121.4375 C-75.515 121.4375 -28.655 121.4375 19.625 121.4375 C20.22954551 164.20797554 20.22954551 164.20797554 20.35742188 182.13867188 C20.44641293 194.5174689 20.5509899 206.89473393 20.7565918 219.2722168 C20.90626722 228.28716798 21.00290952 237.30087608 21.03632742 246.31703526 C21.05586004 251.09033291 21.10162336 255.86007514 21.21095085 260.63223076 C21.31312959 265.12896477 21.34411467 269.62069794 21.32161522 274.11848259 C21.32572734 275.76462559 21.35538499 277.41094318 21.41308212 279.05607986 C21.58548303 284.22740927 21.48732026 288.56564827 19.625 293.4375 C15.50552881 297.75751412 10.02386502 300.1081416 4.625 302.4375 C3.6877304 302.89190177 2.7504608 303.34630354 1.78478909 303.81447506 C-0.34441769 304.84632713 -2.48915841 305.7512395 -4.6875 306.625 C-5.48470459 306.94903809 -6.28190918 307.27307617 -7.10327148 307.60693359 C-9.51885169 308.57392822 -11.9429916 309.51267298 -14.375 310.4375 C-15.09494141 310.71190918 -15.81488281 310.98631836 -16.55664062 311.26904297 C-44.1844755 321.58164892 -74.92875755 326.88407095 -104.375 327.4375 C-105.32842285 327.45796387 -106.2818457 327.47842773 -107.26416016 327.49951172 C-158.76452302 328.44325606 -209.51774332 319.99523891 -247.9375 283.1875 C-257.69165067 273.12038193 -265.04101523 261.88586058 -271.375 249.4375 C-271.72304688 248.75623047 -272.07109375 248.07496094 -272.4296875 247.37304688 C-286.00249273 220.25294921 -291.43627988 188.68256548 -291.578125 158.5234375 C-291.58518463 157.51866364 -291.59224426 156.51388977 -291.59951782 155.47866821 C-291.90675769 98.93070716 -283.69969412 45.77073871 -242.8515625 3.84765625 C-184.9056883 -50.92178299 -59.38668141 -54.74960043 0 0 Z " fill="#6A6B6A" transform="translate(1239.375,146.5625)"/>
<path d="M0 0 C27.06 0 54.12 0 82 0 C82 93.72 82 187.44 82 284 C137.77 284 193.54 284 251 284 C251 307.1 251 330.2 251 354 C168.17 354 85.34 354 0 354 C0 237.18 0 120.36 0 0 Z " fill="#6A6B6A" transform="translate(688,115)"/>
<path d="M0 0 C1.40429527 0.00502634 2.8085923 0.00958724 4.21289062 0.01367188 C7.62111249 0.02538398 11.029312 0.04331695 14.4375 0.0625 C14.4375 6.6625 14.4375 13.2625 14.4375 20.0625 C11.89675781 20.11857422 11.89675781 20.11857422 9.3046875 20.17578125 C-38.55606282 21.44243715 -83.58183771 34.06941432 -121.5625 64.0625 C-122.40554687 64.70058594 -123.24859375 65.33867187 -124.1171875 65.99609375 C-158.2069627 92.57368445 -181.73845219 130.77314835 -193.1875 172.1875 C-193.3819873 172.87231445 -193.57647461 173.55712891 -193.77685547 174.26269531 C-197.99312555 190.27520785 -199.14359319 206.5727468 -199.0625 223.0625 C-199.06085342 224.45500473 -199.06085342 224.45500473 -199.05917358 225.87564087 C-199.00455836 242.0686199 -197.56335985 257.31581535 -193.5625 273.0625 C-193.36495117 273.84963379 -193.16740234 274.63676758 -192.96386719 275.44775391 C-191.75339845 280.08370284 -190.24779114 284.57759351 -188.5625 289.0625 C-188.28567383 289.81869629 -188.00884766 290.57489258 -187.72363281 291.35400391 C-177.6889829 318.53434484 -162.95018842 342.66961881 -142.92724609 363.63037109 C-141.61301533 365.00949053 -140.31589339 366.40485213 -139.01953125 367.80078125 C-120.80452093 386.84249401 -97.56571185 400.6335183 -73.5625 411.0625 C-72.87124023 411.36381836 -72.17998047 411.66513672 -71.46777344 411.97558594 C-36.40764658 426.92588614 4.19628574 430.03300484 41.4375 423.0625 C42.31212891 422.9068457 43.18675781 422.75119141 44.08789062 422.59082031 C94.07742014 413.45706601 141.80676163 383.06601779 170.92285156 341.3046875 C194.02609516 307.1041412 203.70506507 273.07693608 208.4375 232.0625 C162.8975 232.0625 117.3575 232.0625 70.4375 232.0625 C70.4375 225.1325 70.4375 218.2025 70.4375 211.0625 C122.9075 211.0625 175.3775 211.0625 229.4375 211.0625 C229.4375 241.68683491 227.2752126 267.49472796 217.4375 296.0625 C217.22013184 296.69784668 217.00276367 297.33319336 216.77880859 297.98779297 C208.69364909 321.35208639 196.91377214 342.76426153 181.4375 362.0625 C180.64472656 363.05894531 179.85195313 364.05539062 179.03515625 365.08203125 C167.44037535 379.3600488 154.28499693 392.21168778 139.4375 403.0625 C138.64988281 403.65675781 137.86226563 404.25101562 137.05078125 404.86328125 C114.39145817 421.4326641 89.30486351 432.36800257 62.4375 440.0625 C61.66100098 440.28663574 60.88450195 440.51077148 60.08447266 440.74169922 C4.95565336 456.24153939 -57.06100903 446.59459311 -106.59765625 418.83984375 C-159.39577236 388.32992613 -198.02766252 338.35541119 -213.92382812 279.55102539 C-215.77897901 272.44195603 -217.36031834 265.31315812 -218.5625 258.0625 C-218.76875 256.82886719 -218.975 255.59523438 -219.1875 254.32421875 C-227.3822459 198.5450864 -212.53572215 139.61259485 -179.5625 94.0625 C-178.96187744 93.2286377 -178.96187744 93.2286377 -178.34912109 92.37792969 C-172.03369302 83.69453403 -164.99777282 75.79592333 -157.5625 68.0625 C-157.04284668 67.51561523 -156.52319336 66.96873047 -155.98779297 66.40527344 C-121.06386402 29.77117981 -74.14775295 8.49025044 -24.5625 1.0625 C-23.9238501 0.96461182 -23.2852002 0.86672363 -22.62719727 0.76586914 C-15.11584726 -0.2382937 -7.56103642 -0.0473514 0 0 Z " fill="#FDFBFC" transform="translate(290.5625,69.9375)"/>
<path d="M0 0 C6.93 0 13.86 0 21 0 C21 68.97 21 137.94 21 209 C39.15 209 57.3 209 76 209 C76 215.93 76 222.86 76 230 C50.92 230 25.84 230 0 230 C0 154.1 0 78.2 0 0 Z " fill="#FDF9FA" transform="translate(284,178)"/>
<path d="M0 0 C8.49292282 4.56464008 14.36360669 11.05889208 17.27734375 20.2421875 C18.97917634 28.93533234 18.68455788 37.68624435 14.125 45.37890625 C13.65835938 46.0646875 13.19171875 46.75046875 12.7109375 47.45703125 C12.13472656 48.33101562 12.13472656 48.33101562 11.546875 49.22265625 C7.1416842 55.15617855 0.68932317 58.50412481 -6.2890625 60.45703125 C-16.48978931 61.44254689 -24.6876174 60.28586835 -33.0390625 54.26953125 C-38.53610991 49.73182894 -42.06799667 44.21764391 -44.2890625 37.45703125 C-45.27510165 26.13678961 -44.64466718 17.13234801 -37.2265625 8.20703125 C-27.1146029 -2.43452361 -13.63797982 -5.52943881 0 0 Z " fill="#FEFCFD" transform="translate(224.2890625,179.54296875)"/>
</svg>
